<svg width="926" height="454" xmlns="http://www.w3.org/2000/svg" xmlns:xlink="http://www.w3.org/1999/xlink" overflow="hidden"><defs><clipPath id="clip0"><rect x="0" y="0" width="926" height="454"/></clipPath></defs><g clip-path="url(#clip0)"><rect x="0" y="0" width="926" height="454.501" fill="#FFFFFF"/><path d="M227.5 207.729C227.5 195.012 237.798 184.703 250.5 184.703 263.203 184.703 273.5 195.012 273.5 207.729 273.5 220.445 263.203 230.754 250.5 230.754 237.798 230.754 227.5 220.445 227.5 207.729Z" stroke="#172C51" stroke-width="1.33333" stroke-miterlimit="8" fill="none" fill-rule="evenodd"/><text font-family="Calibri,Calibri_MSFontService,sans-serif" font-weight="400" font-size="24" transform="matrix(1 0 0 1.0011 235.317 215)">i=3</text><path d="M344.5 207.729C344.5 195.012 355.021 184.703 368 184.703 380.979 184.703 391.5 195.012 391.5 207.729 391.5 220.445 380.979 230.754 368 230.754 355.021 230.754 344.5 220.445 344.5 207.729Z" stroke="#172C51" stroke-width="1.33333" stroke-miterlimit="8" fill="none" fill-rule="evenodd"/><text font-family="Calibri,Calibri_MSFontService,sans-serif" font-weight="400" font-size="24" transform="matrix(1 0 0 1.0011 352.572 215)">j=4</text><path d="M109.5 207.729C109.5 195.012 120.021 184.703 133 184.703 145.979 184.703 156.5 195.012 156.5 207.729 156.5 220.445 145.979 230.754 133 230.754 120.021 230.754 109.5 220.445 109.5 207.729Z" stroke="#172C51" stroke-width="1.33333" stroke-miterlimit="8" fill="none" fill-rule="evenodd"/><text font-family="Calibri,Calibri_MSFontService,sans-serif" font-weight="400" font-size="24" transform="matrix(1 0 0 1.0011 126.645 215)">2</text><rect x="244.5" y="236.761" width="12" height="12.0132" stroke="#172C51" stroke-miterlimit="8" fill="#DAE3F3"/><rect x="244.5" y="248.774" width="12" height="12.0132" stroke="#172C51" stroke-miterlimit="8" fill="#4472C4"/><path d="M32.5001 278.307C32.5001 265.314 43.0214 254.781 56.0001 254.781 68.9787 254.781 79.5001 265.314 79.5001 278.307 79.5001 291.3 68.9787 301.832 56.0001 301.832 43.0214 301.832 32.5001 291.3 32.5001 278.307Z" stroke="#172C51" stroke-width="1.33333" stroke-miterlimit="8" fill="none" fill-rule="evenodd"/><text font-family="Calibri,Calibri_MSFontService,sans-serif" font-weight="400" font-size="24" transform="matrix(1 0 0 1.0011 49.499 286)">1</text><path d="M418.5 132.146C418.5 119.153 428.798 108.62 441.5 108.62 454.203 108.62 464.5 119.153 464.5 132.146 464.5 145.139 454.203 155.671 441.5 155.671 428.798 155.671 418.5 145.139 418.5 132.146Z" stroke="#172C51" stroke-width="1.33333" stroke-miterlimit="8" fill="none" fill-rule="evenodd"/><text font-family="Calibri,Calibri_MSFontService,sans-serif" font-weight="400" font-size="24" transform="matrix(1 0 0 1.0011 435.108 140)">5</text><path d="M0 0 44.3327 37.7497" stroke="#000000" stroke-width="2" stroke-miterlimit="8" fill="none" fill-rule="evenodd" transform="matrix(1 0 0 -1.0011 72 261.037)"/><text font-family="Cambria Math,Cambria Math_MSFontService,sans-serif" font-weight="400" font-size="19" transform="matrix(1 0 0 1.0011 280.329 200)">­ЮЉј</text><text font-family="Cambria Math,Cambria Math_MSFontService,sans-serif" font-weight="400" font-size="14" transform="matrix(1 0 0 1.0011 290.662 204)">­ЮЉќ­ЮЉЌ</text><text font-family="Cambria Math,Cambria Math_MSFontService,sans-serif" font-weight="400" font-size="19" transform="matrix(1 0 0 1.0011 308.035 200)">РЅа</text><text font-family="Cambria Math,Cambria Math_MSFontService,sans-serif" font-weight="400" font-size="19" transform="matrix(1 0 0 1.0011 327.015 200)">0</text><rect x="126.5" y="154.67" width="13" height="12.0132" stroke="#172C51" stroke-miterlimit="8" fill="#C55A11"/><rect x="126.5" y="166.684" width="13" height="12.0132" stroke="#172C51" stroke-miterlimit="8" fill="#8FAADC"/><rect x="49.5001" y="304.836" width="13" height="12.0132" stroke="#172C51" stroke-miterlimit="8" fill="#DAE3F3"/><rect x="49.5001" y="316.849" width="13" height="12.0132" stroke="#172C51" stroke-miterlimit="8" fill="#C55A11"/><rect x="362.5" y="236.761" width="13" height="12.0132" stroke="#172C51" stroke-miterlimit="8" fill="#FFD966"/><rect x="362.5" y="248.774" width="13" height="12.0132" stroke="#172C51" stroke-miterlimit="8" fill="#70AD47"/><rect x="441.5" y="160.677" width="13" height="12.0132" stroke="#172C51" stroke-miterlimit="8" fill="#DAE3F3"/><rect x="441.5" y="172.69" width="13" height="12.0132" stroke="#172C51" stroke-miterlimit="8" fill="#4472C4"/><path d="M156 207.228 226.934 207.228" stroke="#000000" stroke-width="2" stroke-miterlimit="8" fill="none" fill-rule="evenodd"/><path d="M0 0 70.9336 0.000209974" stroke="#000000" stroke-width="2" stroke-miterlimit="8" fill="none" fill-rule="evenodd" transform="matrix(1 0 0 -1.0011 273 207.228)"/><path d="M0 0 40.9726 42.5082" stroke="#000000" stroke-width="2" stroke-miterlimit="8" fill="none" fill-rule="evenodd" transform="matrix(1 0 0 -1.0011 384 190.718)"/><text font-family="Cambria Math,Cambria Math_MSFontService,sans-serif" font-weight="400" font-size="24" transform="matrix(1 0 0 1.0011 219.068 253)">­Юњћ</text><text font-family="Cambria Math,Cambria Math_MSFontService,sans-serif" font-weight="400" font-size="18" transform="matrix(1 0 0 1.0011 231.068 258)">­ЮЉќ</text><path d="M0.198158-0.268038 21.2562 15.3 20.8599 15.836-0.198158 0.268038ZM21.0581 15.568 21.2917 10.7663 23.2024 17.1533 16.5359 17.1992Z" transform="matrix(1 0 0 -1.0011 423.5 334.021)"/><path d="M0.333333-9.27074e-07 0.333431 35.0818-0.333236 35.0818-0.333333 9.27074e-07ZM9.75703e-05 35.0818 4.00009 32.4151 0.000104987 37.7485-3.99991 32.4151Z" transform="matrix(1 0 0 -1.0011 423.5 334.617)"/><path d="M423.5 333.534 453.827 333.534 453.827 334.202 423.5 334.201ZM453.827 333.868 451.161 329.863 456.494 333.868 451.161 337.872Z"/><text font-family="Calibri,Calibri_MSFontService,sans-serif" font-weight="400" font-size="16" transform="matrix(1 0 0 1.0011 458.593 337)">x</text><text font-family="Calibri,Calibri_MSFontService,sans-serif" font-weight="400" font-size="16" transform="matrix(1 0 0 1.0011 449.398 315)">y</text><text font-family="Calibri,Calibri_MSFontService,sans-serif" font-weight="400" font-size="16" transform="matrix(1 0 0 1.0011 420.466 295)">z</text><path d="M423.759 333.963 423.533 333.335 424.16 333.109 424.386 333.737ZM423.307 332.707 423.082 332.079 423.709 331.853 423.935 332.481ZM422.856 331.451 422.63 330.823 423.258 330.597 423.483 331.225ZM422.405 330.195 422.179 329.567 422.806 329.341 423.032 329.969ZM421.953 328.939 421.728 328.311 422.355 328.085 422.581 328.713ZM421.502 327.683 421.276 327.055 421.903 326.829 422.129 327.457ZM421.05 326.427 420.825 325.799 421.452 325.573 421.678 326.201ZM420.599 325.171 420.373 324.543 421.001 324.317 421.226 324.945ZM420.148 323.915 419.922 323.287 420.549 323.061 420.775 323.689ZM419.696 322.659 419.47 322.031 420.098 321.805 420.323 322.433ZM419.245 321.403 419.019 320.775 419.646 320.549 419.872 321.177ZM418.793 320.147 418.568 319.519 419.195 319.293 419.421 319.921ZM418.342 318.891 418.116 318.263 418.744 318.037 418.969 318.665ZM417.891 317.635 417.665 317.007 418.292 316.781 418.518 317.409ZM417.439 316.379 417.213 315.751 417.841 315.525 418.066 316.153ZM416.988 315.123 416.762 314.495 417.389 314.269 417.615 314.897ZM416.536 313.867 416.311 313.239 416.938 313.013 417.164 313.641ZM416.085 312.611 415.859 311.983 416.486 311.757 416.712 312.385ZM415.633 311.355 415.408 310.727 416.035 310.501 416.261 311.129ZM415.182 310.099 414.956 309.471 415.584 309.245 415.809 309.873ZM414.731 308.843 414.505 308.215 415.132 307.989 415.358 308.617ZM414.279 307.587 414.054 306.959 414.681 306.734 414.907 307.361ZM413.828 306.331 413.602 305.703 414.229 305.478 414.455 306.106ZM413.376 305.076 413.151 304.448 413.778 304.222 414.004 304.85ZM412.925 303.82 412.699 303.192 413.327 302.966 413.552 303.594ZM412.474 302.564 412.248 301.936 412.875 301.71 413.101 302.338ZM412.022 301.308 411.796 300.68 412.424 300.454 412.649 301.082ZM411.571 300.052 411.345 299.424 411.972 299.198 412.198 299.826ZM411.119 298.796 410.894 298.168 411.521 297.942 411.747 298.57ZM410.668 297.54 410.442 296.912 411.07 296.686 411.295 297.314ZM410.217 296.284 409.991 295.656 410.618 295.43 410.844 296.058ZM409.765 295.028 409.539 294.4 410.167 294.174 410.392 294.802ZM409.314 293.772 409.088 293.144 409.715 292.918 409.941 293.546ZM408.862 292.516 408.637 291.888 409.264 291.662 409.49 292.29ZM408.411 291.26 408.185 290.632 408.812 290.406 409.038 291.034ZM407.959 290.004 407.734 289.376 408.361 289.15 408.587 289.778ZM407.508 288.748 407.282 288.12 407.91 287.894 408.135 288.522ZM407.057 287.492 406.831 286.864 407.458 286.638 407.684 287.266ZM406.605 286.236 406.379 285.608 407.007 285.382 407.233 286.01ZM406.154 284.98 405.928 284.352 406.555 284.126 406.781 284.754ZM405.702 283.724 405.477 283.096 406.104 282.87 406.33 283.498ZM405.251 282.468 405.025 281.84 405.653 281.614 405.878 282.242ZM404.8 281.212 404.574 280.584 405.201 280.358 405.427 280.986ZM404.348 279.956 404.122 279.328 404.75 279.102 404.975 279.73ZM403.897 278.7 403.671 278.072 404.298 277.846 404.524 278.474ZM403.445 277.444 403.22 276.816 403.847 276.59 404.073 277.218ZM402.994 276.188 402.768 275.56 403.396 275.334 403.621 275.962ZM402.542 274.932 402.317 274.304 402.944 274.078 403.17 274.706ZM402.091 273.676 401.865 273.048 402.493 272.822 402.718 273.45ZM401.64 272.42 401.414 271.792 402.041 271.566 402.267 272.194ZM401.188 271.164 400.963 270.536 401.59 270.31 401.816 270.938ZM400.737 269.908 400.511 269.28 401.138 269.054 401.364 269.682ZM400.285 268.652 400.06 268.024 400.687 267.798 400.913 268.426ZM399.834 267.396 399.608 266.768 400.236 266.542 400.461 267.17ZM399.383 266.14 399.157 265.512 399.784 265.286 400.01 265.914ZM398.931 264.884 398.705 264.256 399.333 264.03 399.558 264.658ZM398.48 263.628 398.254 263 398.881 262.774 399.107 263.402ZM398.028 262.372 397.803 261.744 398.43 261.518 398.656 262.146ZM397.577 261.116 397.351 260.488 397.979 260.262 398.204 260.89ZM397.126 259.86 396.9 259.232 397.527 259.006 397.753 259.634ZM396.674 258.604 396.448 257.976 397.076 257.75 397.301 258.378ZM396.223 257.348 395.997 256.72 396.624 256.494 396.85 257.122ZM395.771 256.092 395.546 255.464 396.173 255.238 396.399 255.866ZM395.32 254.836 395.094 254.208 395.721 253.982 395.947 254.61ZM394.868 253.58 394.643 252.952 395.27 252.727 395.496 253.355ZM394.417 252.324 394.191 251.697 394.819 251.471 395.044 252.099ZM393.966 251.069 393.74 250.441 394.367 250.215 394.593 250.843ZM393.514 249.813 393.289 249.185 393.916 248.959 394.142 249.587ZM393.063 248.557 392.837 247.929 393.464 247.703 393.69 248.331ZM392.611 247.301 392.386 246.673 393.013 246.447 393.239 247.075ZM392.16 246.045 391.934 245.417 392.562 245.191 392.787 245.819ZM391.709 244.789 391.483 244.161 392.11 243.935 392.336 244.563ZM391.257 243.533 391.031 242.905 391.659 242.679 391.884 243.307ZM390.806 242.277 390.58 241.649 391.207 241.423 391.433 242.051ZM390.354 241.021 390.129 240.393 390.756 240.167 390.982 240.795ZM389.903 239.765 389.677 239.137 390.305 238.911 390.53 239.539ZM389.452 238.509 389.226 237.881 389.853 237.655 390.079 238.283ZM389 237.253 388.774 236.625 389.402 236.399 389.627 237.027ZM388.549 235.997 388.323 235.369 388.95 235.143 389.176 235.771ZM388.097 234.741 387.872 234.113 388.499 233.887 388.725 234.515ZM387.646 233.485 387.42 232.857 388.047 232.631 388.273 233.259ZM387.194 232.229 386.969 231.601 387.596 231.375 387.822 232.003ZM386.743 230.973 386.517 230.345 387.145 230.119 387.37 230.747ZM383.445 232.638 384.5 223.746 390.972 229.927Z" fill="#7F7F7F"/><text font-family="Cambria Math,Cambria Math_MSFontService,sans-serif" font-weight="400" font-size="24" transform="matrix(1 0 0 1.0011 391.202 314)">­ЮЉЦ</text><path d="M8.83594-15.668 5.89453-13.125 5.27344-13.8281 7.14844-15.457 0-15.457 0-16.5586 7.14844-16.5586 5.27344-18.1875 5.89453-18.8906 8.83594-16.3477Z" transform="matrix(1 0 0 1.0011 394.962 314)"/><text fill="#000000" fill-opacity="0" font-family="Arial,Arial_MSFontService,sans-serif" font-size="5.76562" y="-13.8457">нд</text><text font-family="Cambria Math,Cambria Math_MSFontService,sans-serif" font-weight="400" font-size="18" transform="matrix(1 0 0 1.0011 401.522 319)">­ЮЉЌ</text><path d="M749.5 218.24C749.5 205.247 760.021 194.714 773 194.714 785.979 194.714 796.5 205.247 796.5 218.24 796.5 231.233 785.979 241.766 773 241.766 760.021 241.766 749.5 231.233 749.5 218.24Z" stroke="#172C51" stroke-width="1.33333" stroke-miterlimit="8" fill="none" fill-rule="evenodd"/><text font-family="Calibri,Calibri_MSFontService,sans-serif" font-weight="400" font-size="24" transform="matrix(1 0 0 1.0011 757.708 226)">i=3</text><path d="M827.5 140.655C827.5 127.938 837.797 117.63 850.5 117.63 863.203 117.63 873.5 127.938 873.5 140.655 873.5 153.372 863.203 163.68 850.5 163.68 837.797 163.68 827.5 153.372 827.5 140.655Z" stroke="#172C51" stroke-width="1.33333" stroke-miterlimit="8" fill="none" fill-rule="evenodd"/><text font-family="Calibri,Calibri_MSFontService,sans-serif" font-weight="400" font-size="24" transform="matrix(1 0 0 1.0011 834.967 148)">j=4</text><path d="M669.5 301.832C669.5 289.116 679.797 278.807 692.5 278.807 705.203 278.807 715.5 289.116 715.5 301.832 715.5 314.549 705.203 324.858 692.5 324.858 679.797 324.858 669.5 314.549 669.5 301.832Z" stroke="#172C51" stroke-width="1.33333" stroke-miterlimit="8" fill="none" fill-rule="evenodd"/><text font-family="Calibri,Calibri_MSFontService,sans-serif" font-weight="400" font-size="24" transform="matrix(1 0 0 1.0011 685.793 309)">2</text><rect x="766.5" y="165.683" width="13" height="12.0132" stroke="#172C51" stroke-miterlimit="8" fill="#DAE3F3"/><rect x="766.5" y="177.696" width="13" height="12.0132" stroke="#172C51" stroke-miterlimit="8" fill="#4472C4"/><path d="M679.5 410.953C679.5 398.236 689.797 387.927 702.5 387.927 715.203 387.927 725.5 398.236 725.5 410.953 725.5 423.669 715.203 433.978 702.5 433.978 689.797 433.978 679.5 423.669 679.5 410.953Z" stroke="#172C51" stroke-width="1.33333" stroke-miterlimit="8" fill="none" fill-rule="evenodd"/><text font-family="Calibri,Calibri_MSFontService,sans-serif" font-weight="400" font-size="24" transform="matrix(1 0 0 1.0011 696.236 418)">1</text><path d="M827.5 46.5513C827.5 33.8348 837.797 23.526 850.5 23.526 863.203 23.526 873.5 33.8348 873.5 46.5513 873.5 59.2679 863.203 69.5767 850.5 69.5767 837.797 69.5767 827.5 59.2679 827.5 46.5513Z" stroke="#172C51" stroke-width="1.33333" stroke-miterlimit="8" fill="none" fill-rule="evenodd"/><text font-family="Calibri,Calibri_MSFontService,sans-serif" font-weight="400" font-size="24" transform="matrix(1 0 0 1.0011 843.717 54)">5</text><path d="M0 0 0.000104987 63.7797" stroke="#000000" stroke-width="2" stroke-miterlimit="8" fill="none" fill-rule="evenodd" transform="matrix(1 0 0 -1.0011 692 388.207)"/><rect x="685.5" y="247.773" width="13" height="13.0143" stroke="#172C51" stroke-miterlimit="8" fill="#C55A11"/><rect x="685.5" y="259.786" width="13" height="13.0143" stroke="#172C51" stroke-miterlimit="8" fill="#8FAADC"/><rect x="656.5" y="398.939" width="13" height="12.0132" stroke="#172C51" stroke-miterlimit="8" fill="#DAE3F3"/><rect x="656.5" y="410.953" width="13" height="12.0132" stroke="#172C51" stroke-miterlimit="8" fill="#C55A11"/><rect x="877.5" y="128.642" width="13" height="12.0132" stroke="#172C51" stroke-miterlimit="8" fill="#FFD966"/><rect x="877.5" y="140.655" width="13" height="12.0132" stroke="#172C51" stroke-miterlimit="8" fill="#70AD47"/><rect x="878.5" y="32.5359" width="13" height="12.0132" stroke="#172C51" stroke-miterlimit="8" fill="#DAE3F3"/><rect x="878.5" y="44.5491" width="13" height="12.0132" stroke="#172C51" stroke-miterlimit="8" fill="#4472C4"/><path d="M0 0 47.7684 50.6256" stroke="#000000" stroke-width="2" stroke-miterlimit="8" fill="none" fill-rule="evenodd" transform="matrix(1 0 0 -1.0011 708 284.939)"/><path d="M0 0 44.5296 44.5572" stroke="#000000" stroke-width="2" stroke-miterlimit="8" fill="none" fill-rule="evenodd" transform="matrix(1 0 0 -1.0011 789 200.778)"/><path d="M0 0 0.000104987 47.3721" stroke="#000000" stroke-width="2" stroke-miterlimit="8" fill="none" fill-rule="evenodd" transform="matrix(1 0 0 -1.0011 850 116.5)"/><text font-family="Cambria Math,Cambria Math_MSFontService,sans-serif" font-weight="400" font-size="24" transform="matrix(1 0 0 1.0011 737.172 164)">­Юњћ</text><text font-family="Cambria Math,Cambria Math_MSFontService,sans-serif" font-weight="400" font-size="18" transform="matrix(1 0 0 1.0011 749.172 170)">­ЮЉќ</text><text font-family="Cambria Math,Cambria Math_MSFontService,sans-serif" font-weight="400" font-size="18" transform="matrix(1 0 0 1.0011 749.172 154)">Рђ▓</text><text font-family="Cambria Math,Cambria Math_MSFontService,sans-serif" font-weight="400" font-size="24" transform="matrix(1 0 0 1.0011 763.532 164)">=</text><text font-family="Cambria Math,Cambria Math_MSFontService,sans-serif" font-weight="400" font-size="24" transform="matrix(1 0 0 1.0011 787.978 164)">­Юњћ</text><text font-family="Cambria Math,Cambria Math_MSFontService,sans-serif" font-weight="400" font-size="18" transform="matrix(1 0 0 1.0011 799.978 169)">­Юњі</text><path d="M0.198158-0.268038 21.2562 15.3 20.8599 15.836-0.198158 0.268038ZM21.0581 15.568 21.2917 10.7663 23.2024 17.1533 16.5359 17.1992Z" transform="matrix(1 0 0 -1.0011 808.5 340.028)"/><path d="M0.333333-9.27074e-07 0.333431 35.0818-0.333236 35.0818-0.333333 9.27074e-07ZM9.75703e-05 35.0818 4.00009 32.4151 0.000104987 37.7485-3.99991 32.4151Z" transform="matrix(1 0 0 -1.0011 808.5 339.623)"/><path d="M808.5 339.541 838.827 339.541 838.827 340.208 808.5 340.208ZM838.827 339.874 836.161 335.87 841.494 339.874 836.161 343.879Z"/><text font-family="Calibri,Calibri_MSFontService,sans-serif" font-weight="400" font-size="16" transform="matrix(1 0 0 1.0011 843.304 342)">x</text><text font-family="Calibri,Calibri_MSFontService,sans-serif" font-weight="400" font-size="16" transform="matrix(1 0 0 1.0011 834.109 321)">y</text><text font-family="Calibri,Calibri_MSFontService,sans-serif" font-weight="400" font-size="16" transform="matrix(1 0 0 1.0011 805.177 300)">z</text><path d="M0.32431-0.0770314 0.478373 0.57159-0.170248 0.725652-0.32431 0.0770314ZM0.632436 1.22021 0.786499 1.86883 0.137878 2.02289-0.0161851 1.37427ZM0.940561 2.51745 1.09462 3.16607 0.446003 3.32014 0.29194 2.67151ZM1.24869 3.81469 1.40275 4.46332 0.754128 4.61738 0.600066 3.96876ZM1.55681 5.11194 1.71087 5.76056 1.06225 5.91462 0.908191 5.266ZM1.86494 6.40918 2.019 7.0578 1.37038 7.21186 1.21632 6.56324ZM2.17306 7.70642 2.32713 8.35504 1.6785 8.5091 1.52444 7.86048ZM2.48119 9.00366 2.63525 9.65228 1.98663 9.80635 1.83257 9.15773ZM2.78931 10.3009 2.94338 10.9495 2.29476 11.1036 2.14069 10.455ZM3.09744 11.5981 3.2515 12.2468 2.60288 12.4008 2.44882 11.7522ZM3.40556 12.8954 3.55963 13.544 2.91101 13.6981 2.75694 13.0495ZM3.71369 14.1926 3.86775 14.8413 3.21913 14.9953 3.06507 14.3467ZM4.02181 15.4899 4.17588 16.1385 3.52726 16.2926 3.37319 15.6439ZM4.32994 16.7871 4.484 17.4357 3.83538 17.5898 3.68132 16.9412ZM4.63807 18.0844 4.79213 18.733 4.14351 18.887 3.98944 18.2384ZM4.94619 19.3816 5.10025 20.0302 4.45163 20.1843 4.29757 19.5357ZM5.25432 20.6788 5.40838 21.3275 4.75976 21.4815 4.60569 20.8329ZM5.56244 21.9761 5.7165 22.6247 5.06788 22.7788 4.91382 22.1301ZM5.87057 23.2733 6.02463 23.9219 5.37601 24.076 5.22194 23.4274ZM6.17869 24.5706 6.33275 25.2192 5.68413 25.3732 5.53007 24.7246ZM6.48682 25.8678 6.64088 26.5164 5.99226 26.6705 5.83819 26.0219ZM6.79494 27.165 6.949 27.8137 6.30038 27.9677 6.14632 27.3191ZM7.10307 28.4623 7.25713 29.1109 6.60851 29.265 6.45445 28.6163ZM7.41119 29.7595 7.56525 30.4081 6.91663 30.5622 6.76257 29.9136ZM7.71932 31.0568 7.87338 31.7054 7.22476 31.8595 7.0707 31.2108ZM8.02744 32.354 8.1815 33.0026 7.53288 33.1567 7.37882 32.5081ZM8.33557 33.6513 8.48963 34.2999 7.84101 34.4539 7.68695 33.8053ZM8.64369 34.9485 8.79775 35.5971 8.14913 35.7512 7.99507 35.1026ZM8.95182 36.2457 9.10588 36.8944 8.45726 37.0484 8.3032 36.3998ZM9.25994 37.543 9.414 38.1916 8.76538 38.3457 8.61132 37.6971ZM9.56807 38.8402 9.72213 39.4889 9.07351 39.6429 8.91945 38.9943ZM9.87619 40.1375 10.0303 40.7861 9.38163 40.9402 9.22757 40.2915ZM10.1843 41.4347 10.3384 42.0833 9.68976 42.2374 9.5357 41.5888ZM10.4924 42.732 10.6465 43.3806 9.99788 43.5347 9.84382 42.886ZM10.8006 44.0292 10.9546 44.6778 10.306 44.8319 10.1519 44.1833ZM11.1087 45.3265 11.2628 45.9751 10.6141 46.1291 10.4601 45.4805ZM11.4168 46.6237 11.5709 47.2723 10.9223 47.4264 10.7682 46.7778ZM11.7249 47.9209 11.879 48.5696 11.2304 48.7236 11.0763 48.075ZM12.0331 49.2182 12.1871 49.8668 11.5385 50.0209 11.3844 49.3722ZM12.3412 50.5154 12.4953 51.1641 11.8466 51.3181 11.6926 50.6695ZM12.6493 51.8127 12.8034 52.4613 12.1548 52.6154 12.0007 51.9667ZM12.9574 53.1099 13.1115 53.7585 12.4629 53.9126 12.3088 53.264ZM13.2656 54.4072 13.4196 55.0558 12.771 55.2098 12.6169 54.5612ZM13.5737 55.7044 13.7278 56.353 13.0791 56.5071 12.9251 55.8585ZM13.8818 57.0016 14.0359 57.6503 13.3873 57.8043 13.2332 57.1557ZM14.1899 58.2989 14.344 58.9475 13.6954 59.1016 13.5413 58.453ZM14.4981 59.5961 14.6521 60.2448 14.0035 60.3988 13.8494 59.7502ZM14.8062 60.8934 14.9603 61.542 14.3116 61.6961 14.1576 61.0474ZM15.1143 62.1906 15.2684 62.8392 14.6198 62.9933 14.4657 62.3447ZM15.4224 63.4879 15.5765 64.1365 14.9279 64.2906 14.7738 63.6419ZM15.7306 64.7851 15.8846 65.4337 15.236 65.5878 15.082 64.9392ZM16.0387 66.0824 16.1928 66.731 15.5441 66.885 15.3901 66.2364ZM16.3468 67.3796 16.5009 68.0282 15.8523 68.1823 15.6982 67.5337ZM16.655 68.6768 16.809 69.3255 16.1604 69.4795 16.0063 68.8309ZM16.9631 69.9741 17.1171 70.6227 16.4685 70.7768 16.3145 70.1282ZM17.2712 71.2713 17.4253 71.92 16.7766 72.074 16.6226 71.4254ZM17.5793 72.5686 17.7334 73.2172 17.0848 73.3713 16.9307 72.7226ZM17.8875 73.8658 18.0415 74.5144 17.3929 74.6685 17.2388 74.0199ZM18.1956 75.1631 18.3497 75.8117 17.701 75.9658 17.547 75.3171ZM18.5037 76.4603 18.6578 77.1089 18.0092 77.263 17.8551 76.6144ZM18.8118 77.7576 18.9659 78.4062 18.3173 78.5602 18.1632 77.9116ZM19.12 79.0548 19.274 79.7034 18.6254 79.8575 18.4713 79.2089ZM19.4281 80.352 19.5822 81.0007 18.9335 81.1547 18.7795 80.5061ZM19.7362 81.6493 19.8903 82.2979 19.2417 82.452 19.0876 81.8034ZM20.0443 82.9465 20.1984 83.5951 19.5498 83.7492 19.3957 83.1006ZM20.3525 84.2438 20.5065 84.8924 19.8579 85.0465 19.7039 84.3978ZM20.6606 85.541 20.8147 86.1896 20.166 86.3437 20.012 85.6951ZM20.9687 86.8383 21.1228 87.4869 20.4742 87.6409 20.3201 86.9923ZM21.2769 88.1355 21.4309 88.7841 20.7823 88.9382 20.6282 88.2896ZM21.585 89.4327 21.739 90.0814 21.0904 90.2354 20.9364 89.5868ZM21.8931 90.73 22.0472 91.3786 21.3986 91.5327 21.2445 90.8841ZM22.2012 92.0272 22.3553 92.6759 21.7067 92.8299 21.5526 92.1813ZM22.5094 93.3245 22.6634 93.9731 22.0148 94.1272 21.8607 93.4785ZM22.8175 94.6217 22.9715 95.2703 22.3229 95.4244 22.1689 94.7758ZM23.1256 95.919 23.2797 96.5676 22.6311 96.7217 22.477 96.073ZM23.4337 97.2162 23.5878 97.8648 22.9392 98.0189 22.7851 97.3703ZM23.7419 98.5135 23.8959 99.1621 23.2473 99.3161 23.0932 98.6675ZM24.05 99.8107 24.204 100.459 23.5554 100.613 23.4014 99.9648ZM24.3581 101.108 24.5122 101.757 23.8636 101.911 23.7095 101.262ZM24.6662 102.405 24.8203 103.054 24.1717 103.208 24.0176 102.559ZM24.9744 103.702 25.1284 104.351 24.4798 104.505 24.3257 103.856ZM25.2825 105 25.4366 105.648 24.7879 105.802 24.6339 105.154ZM25.5906 106.297 25.7447 106.946 25.0961 107.1 24.942 106.451ZM25.8987 107.594 26.0528 108.243 25.4042 108.397 25.2501 107.748ZM26.2069 108.891 26.3609 109.54 25.7123 109.694 25.5582 109.045ZM26.515 110.189 26.6691 110.837 26.0204 110.991 25.8664 110.343ZM26.8231 111.486 26.9772 112.135 26.3286 112.289 26.1745 111.64ZM27.1312 112.783 27.2853 113.432 26.6367 113.586 26.4826 112.937ZM27.4394 114.08 27.5934 114.729 26.9448 114.883 26.7907 114.234ZM27.7475 115.378 27.9015 116.026 27.2529 116.18 27.0989 115.532ZM28.0556 116.675 28.2097 117.323 27.561 117.478 27.407 116.829ZM28.3637 117.972 28.5178 118.621 27.8692 118.775 27.7151 118.126ZM28.6719 119.269 28.8259 119.918 28.1773 120.072 28.0232 119.423ZM28.98 120.567 29.134 121.215 28.4854 121.369 28.3314 120.721ZM29.2881 121.864 29.4422 122.512 28.7935 122.667 28.6395 122.018ZM29.5962 123.161 29.7503 123.81 29.1017 123.964 28.9476 123.315ZM29.9044 124.458 30.0584 125.107 29.4098 125.261 29.2557 124.612ZM30.2125 125.756 30.3665 126.404 29.7179 126.558 29.5639 125.91ZM30.5206 127.053 30.6747 127.701 30.026 127.856 29.872 127.207ZM30.8287 128.35 30.9828 128.999 30.3342 129.153 30.1801 128.504ZM31.1368 129.647 31.2909 130.296 30.6423 130.45 30.4882 129.801ZM31.445 130.945 31.599 131.593 30.9504 131.747 30.7963 131.099ZM31.7531 132.242 31.9072 132.89 31.2585 133.044 31.1045 132.396ZM32.0612 133.539 32.2153 134.188 31.5667 134.342 31.4126 133.693ZM32.3693 134.836 32.5234 135.485 31.8748 135.639 31.7207 134.99ZM32.6775 136.134 32.8315 136.782 32.1829 136.936 32.0288 136.288ZM32.9856 137.431 33.1396 138.079 32.491 138.233 32.337 137.585ZM33.2937 138.728 33.4478 139.377 32.7991 139.531 32.6451 138.882ZM33.6018 140.025 33.7559 140.674 33.1073 140.828 32.9532 140.179ZM33.91 141.322 34.064 141.971 33.4154 142.125 33.2613 141.477ZM34.2181 142.62 34.3721 143.268 33.7235 143.422 33.5695 142.774ZM34.5262 143.917 34.6803 144.566 34.0316 144.72 33.8776 144.071ZM34.8343 145.214 34.9884 145.863 34.3398 146.017 34.1857 145.368ZM35.1425 146.511 35.2965 147.16 34.6479 147.314 34.4938 146.666ZM35.4506 147.809 35.6046 148.457 34.956 148.611 34.802 147.963ZM35.7587 149.106 35.9128 149.755 35.2642 149.909 35.1101 149.26ZM36.0668 150.403 36.2209 151.052 35.5723 151.206 35.4182 150.557ZM36.375 151.7 36.529 152.349 35.8804 152.503 35.7263 151.854ZM36.6831 152.998 36.8372 153.646 36.1885 153.8 36.0345 153.152ZM36.9912 154.295 37.1453 154.943 36.4967 155.098 36.3426 154.449ZM37.2993 155.592 37.4534 156.241 36.8048 156.395 36.6507 155.746ZM37.6075 156.889 37.7615 157.538 37.1129 157.692 36.9589 157.043ZM37.9156 158.187 38.0697 158.835 37.421 158.989 37.267 158.341ZM38.2237 159.484 38.3778 160.132 37.7292 160.286 37.5751 159.638ZM38.5319 160.781 38.6859 161.43 38.0373 161.584 37.8832 160.935ZM38.84 162.078 38.994 162.727 38.3454 162.881 38.1914 162.232ZM39.1481 163.375 39.3022 164.024 38.6535 164.178 38.4995 163.53ZM39.4562 164.673 39.6103 165.321 38.9617 165.475 38.8076 164.827ZM39.7644 165.97 39.9184 166.619 39.2698 166.773 39.1157 166.124ZM40.0725 167.267 40.2265 167.916 39.5779 168.07 39.4239 167.421ZM40.3806 168.564 40.4891 169.021 39.8405 169.175 39.732 168.718ZM43.7484 166.877 41.7054 175.584 35.9649 168.725Z" fill="#7F7F7F" transform="matrix(1 0 0 -1.0011 808.5 339.458)"/><text font-family="Cambria Math,Cambria Math_MSFontService,sans-serif" font-weight="400" font-size="24" transform="matrix(1 0 0 1.0011 777.307 271)">­ЮЉЦ</text><path d="M8.83594-15.668 5.89453-13.125 5.27344-13.8281 7.14844-15.457 0-15.457 0-16.5586 7.14844-16.5586 5.27344-18.1875 5.89453-18.8906 8.83594-16.3477Z" transform="matrix(1 0 0 1.0011 781.067 271)"/><text fill="#000000" fill-opacity="0" font-family="Arial,Arial_MSFontService,sans-serif" font-size="5.76562" y="-13.8457">нд</text><text font-family="Cambria Math,Cambria Math_MSFontService,sans-serif" font-weight="400" font-size="18" transform="matrix(1 0 0 1.0011 787.627 277)">­ЮЉЌ</text><text font-family="Cambria Math,Cambria Math_MSFontService,sans-serif" font-weight="400" font-size="18" transform="matrix(1 0 0 1.0011 791.274 261)">Рђ▓</text><text font-family="Cambria Math,Cambria Math_MSFontService,sans-serif" font-weight="400" font-size="24" transform="matrix(1 0 0 1.0011 805.041 271)">=</text><text font-family="Cambria Math,Cambria Math_MSFontService,sans-serif" font-weight="400" font-size="24" transform="matrix(1 0 0 1.0011 829.487 271)">­ЮЉ╣</text><text font-family="Cambria Math,Cambria Math_MSFontService,sans-serif" font-weight="400" font-size="24" transform="matrix(1 0 0 1.0011 846.154 271)">­ЮЉЦ</text><path d="M8.83594-15.668 5.89453-13.125 5.27344-13.8281 7.14844-15.457 0-15.457 0-16.5586 7.14844-16.5586 5.27344-18.1875 5.89453-18.8906 8.83594-16.3477Z" transform="matrix(1 0 0 1.0011 849.914 271)"/><text fill="#000000" fill-opacity="0" font-family="Arial,Arial_MSFontService,sans-serif" font-size="5.76562" y="-13.8457">нд</text><text font-family="Cambria Math,Cambria Math_MSFontService,sans-serif" font-weight="400" font-size="18" transform="matrix(1 0 0 1.0011 856.474 276)">­ЮЉЌ</text><text font-family="Cambria Math,Cambria Math_MSFontService,sans-serif" font-weight="400" font-size="24" transform="matrix(1 0 0 1.0011 871.507 271)">+</text><text font-family="Cambria Math,Cambria Math_MSFontService,sans-serif" font-weight="400" font-size="24" transform="matrix(1 0 0 1.0011 894.627 271)">­ЮЉА</text><path d="M8.83594-15.668 5.89453-13.125 5.27344-13.8281 7.14844-15.457 0-15.457 0-16.5586 7.14844-16.5586 5.27344-18.1875 5.89453-18.8906 8.83594-16.3477Z" transform="matrix(1 0 0 1.0011 896.347 268)"/><text fill="#000000" fill-opacity="0" font-family="Arial,Arial_MSFontService,sans-serif" font-size="5.76562" y="-13.8457">нд</text><path d="M530 232.256 633.587 232.256 633.587 236.26 530 236.26ZM631.587 228.251 643.587 234.258 631.587 240.265Z"/><text font-family="Cambria Math,Cambria Math_MSFontService,sans-serif" font-weight="400" font-size="24" transform="matrix(1 0 0 1.0011 522.641 213)">­ЮЉ╣</text><text font-family="Cambria Math,Cambria Math_MSFontService,sans-serif" font-weight="400" font-size="24" transform="matrix(1 0 0 1.0011 539.307 213)">,</text><text font-family="Cambria Math,Cambria Math_MSFontService,sans-serif" font-weight="400" font-size="24" transform="matrix(1 0 0 1.0011 548.107 213)">­ЮЉА</text><path d="M8.83594-15.668 5.89453-13.125 5.27344-13.8281 7.14844-15.457 0-15.457 0-16.5586 7.14844-16.5586 5.27344-18.1875 5.89453-18.8906 8.83594-16.3477Z" transform="matrix(1 0 0 1.0011 549.827 210)"/><text fill="#000000" fill-opacity="0" font-family="Arial,Arial_MSFontService,sans-serif" font-size="5.76562" y="-13.8457">нд</text><text font-family="Cambria Math,Cambria Math_MSFontService,sans-serif" font-weight="400" font-size="24" transform="matrix(1 0 0 1.0011 564.634 213)">Рѕѕ</text><text font-family="Cambria Math,Cambria Math_MSFontService,sans-serif" font-weight="400" font-size="24" transform="matrix(1 0 0 1.0011 586.081 213)">­ЮЉє­ЮљИ</text><text font-family="Cambria Math,Cambria Math_MSFontService,sans-serif" font-weight="400" font-size="24" transform="matrix(1 0 0 1.0011 614.507 213)">(</text><text font-family="Cambria Math,Cambria Math_MSFontService,sans-serif" font-weight="400" font-size="24" transform="matrix(1 0 0 1.0011 624.341 213)">3</text><text font-family="Cambria Math,Cambria Math_MSFontService,sans-serif" font-weight="400" font-size="24" transform="matrix(1 0 0 1.0011 637.507 213)">)</text></g></svg>