<svg width="983" height="189" xmlns="http://www.w3.org/2000/svg" xmlns:xlink="http://www.w3.org/1999/xlink" overflow="hidden"><defs><clipPath id="clip0"><rect x="0" y="0" width="983" height="189"/></clipPath></defs><g clip-path="url(#clip0)"><rect x="0" y="0" width="983" height="188.936" fill="#FFFFFF"/><rect x="245.5" y="52.4822" width="139" height="107.963" stroke="#000000" stroke-width="1.33379" stroke-miterlimit="8" fill="#C5E0B4"/><text font-family="Calibri,Calibri_MSFontService,sans-serif" font-weight="400" font-size="21" transform="matrix(1 0 0 0.999661 266.043 113)">Embedding</text><rect x="454.5" y="52.4822" width="139" height="108.963" stroke="#000000" stroke-width="1.33379" stroke-miterlimit="8" fill="#B4C7E7"/><text font-family="Calibri,Calibri_MSFontService,sans-serif" font-weight="400" font-size="21" transform="matrix(1 0 0 0.999661 475.965 101)">Interaction</text><text font-family="Calibri,Calibri_MSFontService,sans-serif" font-weight="400" font-size="21" transform="matrix(1 0 0 0.999661 483.72 127)">(</text><text font-family="Calibri,Calibri_MSFontService,sans-serif" font-style="italic" font-weight="400" font-size="21" transform="matrix(1 0 0 0.999661 490.223 127)">t</text><text font-family="Calibri,Calibri_MSFontService,sans-serif" font-weight="400" font-size="21" transform="matrix(1 0 0 0.999661 502.227 127)">blocks</text><text font-family="Calibri,Calibri_MSFontService,sans-serif" font-weight="400" font-size="21" transform="matrix(1 0 0 0.999661 556.378 127)">)</text><path d="M323 32.985 323.047 45.3296 321.047 45.3372 321 32.9926ZM326.043 43.9848 322.072 52 318.041 44.0153Z"/><text font-family="Cambria Math,Cambria Math_MSFontService,sans-serif" font-weight="400" font-size="21" transform="matrix(1 0 0 0.999661 199.465 109)">­Юљ│</text><text font-family="Cambria Math,Cambria Math_MSFontService,sans-serif" font-weight="400" font-size="15" transform="matrix(1 0 0 0.999661 209.969 113)">i</text><text font-family="Cambria Math,Cambria Math_MSFontService,sans-serif" font-weight="400" font-size="21" transform="matrix(1 0 0 0.999661 401.763 134)">­Юљг</text><text font-family="Cambria Math,Cambria Math_MSFontService,sans-serif" font-weight="400" font-size="15" transform="matrix(1 0 0 0.999661 411.933 139)">i</text><text font-family="Cambria Math,Cambria Math_MSFontService,sans-serif" font-weight="400" font-size="15" transform="matrix(1 0 0 0.999661 412.613 125)">0</text><text font-family="Cambria Math,Cambria Math_MSFontService,sans-serif" font-weight="400" font-size="21" transform="matrix(1 0 0 0.999661 397.142 91)">­Юљд</text><text font-family="Cambria Math,Cambria Math_MSFontService,sans-serif" font-weight="400" font-size="15" transform="matrix(1 0 0 0.999661 416.482 97)">ij</text><text font-family="Cambria Math,Cambria Math_MSFontService,sans-serif" font-weight="400" font-size="15" transform="matrix(1 0 0 0.999661 416.482 83)">0</text><text font-family="Cambria Math,Cambria Math_MSFontService,sans-serif" font-weight="400" font-size="21" transform="matrix(1 0 0 0.999661 199.465 38)">­ЮЉЦ</text><path d="M7.73145-13.7095 5.15771-11.4844 4.61426-12.0996 6.25488-13.5249 0-13.5249 0-14.4888 6.25488-14.4888 4.61426-15.9141 5.15771-16.5293 7.73145-14.3042Z" transform="matrix(1 0 0 0.999661 202.846 38)"/><text fill="#000000" fill-opacity="0" font-family="Arial,Arial_MSFontService,sans-serif" font-size="5.04492" y="-12.115">нд</text><text font-family="Cambria Math,Cambria Math_MSFontService,sans-serif" font-weight="400" font-size="15" transform="matrix(1 0 0 0.999661 210.595 42)">­ЮЉќ</text><path d="M0 0 483.429 0.538268" stroke="#000000" stroke-width="2" stroke-miterlimit="8" fill="none" fill-rule="evenodd" transform="matrix(1.00034 0 0 -1 219 32.5275)"/><rect x="662.5" y="52.4822" width="83.9999" height="107.963" stroke="#000000" stroke-width="1.33379" stroke-miterlimit="8" fill="#F8CBAD"/><text font-family="Calibri,Calibri_MSFontService,sans-serif" font-weight="400" font-size="21" transform="matrix(1 0 0 0.999661 673.21 113)">Output</text><text font-family="Cambria Math,Cambria Math_MSFontService,sans-serif" font-weight="400" font-size="24" transform="matrix(1 0 0 0.999661 769.829 115)">­ЮЉА</text><text font-family="Cambria Math,Cambria Math_MSFontService,sans-serif" font-weight="400" font-size="18" transform="matrix(1 0 0 0.999661 778.978 120)">­ЮЉќ</text><path d="M746.016 104.964 760.009 105.184 759.978 107.183 745.984 106.964ZM758.722 102.163 766.661 106.288 758.597 110.162Z"/><path d="M217.001 103.964 238.458 103.987 238.456 105.987 216.999 105.964ZM237.127 100.986 245.126 104.994 237.119 108.986Z"/><path d="M0.00693981-0.999976 17.1668-0.880887 17.1529 1.11906-0.00693981 0.999976ZM15.8543-3.89007 23.8264 0.165354 15.7988 4.10974Z" transform="matrix(1.00034 0 0 -1 428 129.122)"/><path d="M0.00693981-0.999976 17.1668-0.880887 17.1529 1.11906-0.00693981 0.999976ZM15.8543-3.89007 23.8264 0.165354 15.7988 4.10974Z" transform="matrix(1.00034 0 0 -1 428 85.1365)"/><path d="M394.371 85.0019 384 84.9711" stroke="#000000" stroke-width="2.00068" stroke-miterlimit="8" fill="none" fill-rule="evenodd"/><path d="M395.371 128.98 385 128.956" stroke="#000000" stroke-width="2.00068" stroke-miterlimit="8" fill="none" fill-rule="evenodd"/><path d="M527 32.985 527.047 45.3296 525.047 45.3372 525 32.9926ZM530.043 43.9848 526.072 52 522.041 44.0153Z"/><text font-family="Cambria Math,Cambria Math_MSFontService,sans-serif" font-weight="400" font-size="21" transform="matrix(1 0 0 0.999661 609.595 136)">­Юљг</text><text font-family="Cambria Math,Cambria Math_MSFontService,sans-serif" font-weight="400" font-size="15" transform="matrix(1 0 0 0.999661 619.765 141)">i</text><text font-family="Cambria Math,Cambria Math_MSFontService,sans-serif" font-weight="400" font-size="15" transform="matrix(1 0 0 0.999661 620.445 127)">t</text><text font-family="Cambria Math,Cambria Math_MSFontService,sans-serif" font-weight="400" font-size="21" transform="matrix(1 0 0 0.999661 604.975 92)">­Юљд</text><text font-family="Cambria Math,Cambria Math_MSFontService,sans-serif" font-weight="400" font-size="15" transform="matrix(1 0 0 0.999661 624.314 97)">ij</text><text font-family="Cambria Math,Cambria Math_MSFontService,sans-serif" font-weight="400" font-size="15" transform="matrix(1 0 0 0.999661 624.314 83)">t</text><path d="M0.00693981-0.999976 17.1668-0.880887 17.1529 1.11906-0.00693981 0.999976ZM15.8543-3.89007 23.8264 0.165354 15.7988 4.10974Z" transform="matrix(1.00034 0 0 -1 635 131.121)"/><path d="M0.00693981-0.999976 17.1668-0.880887 17.1529 1.11906-0.00693981 0.999976ZM15.8543-3.89007 23.8264 0.165354 15.7988 4.10974Z" transform="matrix(1.00034 0 0 -1 636 86.1362)"/><path d="M0 0 10.3678 0.140787" stroke="#000000" stroke-width="2" stroke-miterlimit="8" fill="none" fill-rule="evenodd" transform="matrix(-1.00034 0 0 1 602.371 85.9708)"/><path d="M603.371 130.98 593 130.956" stroke="#000000" stroke-width="2.00068" stroke-miterlimit="8" fill="none" fill-rule="evenodd"/><path d="M703 30.9857 703.047 43.3303 701.047 43.3379 701 30.9933ZM706.043 41.9856 702.072 50.0007 698.041 42.016Z"/></g></svg>