<svg width="960" height="540" xmlns="http://www.w3.org/2000/svg" xmlns:xlink="http://www.w3.org/1999/xlink" overflow="hidden"><defs><clipPath id="clip0"><rect x="0" y="0" width="960" height="540"/></clipPath></defs><g clip-path="url(#clip0)"><rect x="0" y="0" width="960" height="540" fill="#FFFFFF"/><path d="M207.5 239.5C207.5 226.798 218.021 216.5 231 216.5 243.979 216.5 254.5 226.798 254.5 239.5 254.5 252.203 243.979 262.5 231 262.5 218.021 262.5 207.5 252.203 207.5 239.5Z" stroke="#172C51" stroke-width="1.33333" stroke-miterlimit="8" fill="none" fill-rule="evenodd"/><text font-family="Calibri,Calibri_MSFontService,sans-serif" font-weight="400" font-size="24" transform="translate(215.995 247)">i=3</text><path d="M325.5 239.5C325.5 226.798 335.798 216.5 348.5 216.5 361.203 216.5 371.5 226.798 371.5 239.5 371.5 252.203 361.203 262.5 348.5 262.5 335.798 262.5 325.5 252.203 325.5 239.5Z" stroke="#172C51" stroke-width="1.33333" stroke-miterlimit="8" fill="none" fill-rule="evenodd"/><text font-family="Calibri,Calibri_MSFontService,sans-serif" font-weight="400" font-size="24" transform="translate(333.25 247)">j=4</text><path d="M85.5001 239.5C85.5001 226.798 96.0214 216.5 109 216.5 121.979 216.5 132.5 226.798 132.5 239.5 132.5 252.203 121.979 262.5 109 262.5 96.0214 262.5 85.5001 252.203 85.5001 239.5Z" stroke="#172C51" stroke-width="1.33333" stroke-miterlimit="8" fill="none" fill-rule="evenodd"/><text font-family="Calibri,Calibri_MSFontService,sans-serif" font-weight="400" font-size="24" transform="translate(102.544 247)">2</text><rect x="224.5" y="268.5" width="13" height="13" stroke="#172C51" stroke-miterlimit="8" fill="#DAE3F3"/><rect x="224.5" y="280.5" width="13" height="13" stroke="#172C51" stroke-miterlimit="8" fill="#4472C4"/><path d="M8.50005 310.5C8.50005 297.798 19.0214 287.5 32.0001 287.5 44.9787 287.5 55.5001 297.798 55.5001 310.5 55.5001 323.203 44.9787 333.5 32.0001 333.5 19.0214 333.5 8.50005 323.203 8.50005 310.5Z" stroke="#172C51" stroke-width="1.33333" stroke-miterlimit="8" fill="none" fill-rule="evenodd"/><text font-family="Calibri,Calibri_MSFontService,sans-serif" font-weight="400" font-size="24" transform="translate(25.3978 317)">1</text><path d="M399.5 164.5C399.5 151.798 409.798 141.5 422.5 141.5 435.203 141.5 445.5 151.798 445.5 164.5 445.5 177.203 435.203 187.5 422.5 187.5 409.798 187.5 399.5 177.203 399.5 164.5Z" stroke="#172C51" stroke-width="1.33333" stroke-miterlimit="8" fill="none" fill-rule="evenodd"/><text font-family="Calibri,Calibri_MSFontService,sans-serif" font-weight="400" font-size="24" transform="translate(415.786 171)">5</text><path d="M0 0 44.3327 37.7497" stroke="#000000" stroke-width="2" stroke-miterlimit="8" fill="none" fill-rule="evenodd" transform="matrix(1 0 0 -1 48 293.75)"/><text font-family="Cambria Math,Cambria Math_MSFontService,sans-serif" font-weight="400" font-size="19" transform="translate(261.007 232)">­ЮЉј</text><text font-family="Cambria Math,Cambria Math_MSFontService,sans-serif" font-weight="400" font-size="14" transform="translate(271.34 236)">­ЮЉќ­ЮЉЌ</text><text font-family="Cambria Math,Cambria Math_MSFontService,sans-serif" font-weight="400" font-size="19" transform="translate(288.713 232)">РЅа</text><text font-family="Cambria Math,Cambria Math_MSFontService,sans-serif" font-weight="400" font-size="19" transform="translate(307.693 232)">0</text><rect x="102.5" y="186.5" width="13" height="12" stroke="#172C51" stroke-miterlimit="8" fill="#C55A11"/><rect x="102.5" y="198.5" width="13" height="12" stroke="#172C51" stroke-miterlimit="8" fill="#8FAADC"/><rect x="25.5001" y="336.5" width="13" height="13" stroke="#172C51" stroke-miterlimit="8" fill="#DAE3F3"/><rect x="25.5001" y="348.5" width="13" height="13" stroke="#172C51" stroke-miterlimit="8" fill="#C55A11"/><rect x="343.5" y="268.5" width="12" height="13" stroke="#172C51" stroke-miterlimit="8" fill="#FFD966"/><rect x="343.5" y="280.5" width="12" height="13" stroke="#172C51" stroke-miterlimit="8" fill="#70AD47"/><rect x="422.5" y="192.5" width="12" height="12" stroke="#172C51" stroke-miterlimit="8" fill="#DAE3F3"/><rect x="422.5" y="204.5" width="12" height="12" stroke="#172C51" stroke-miterlimit="8" fill="#4472C4"/><path d="M0 0 75.7131 0.115696" stroke="#000000" stroke-width="2" stroke-miterlimit="8" fill="none" fill-rule="evenodd" transform="matrix(1 0 0 -1 132 239.116)"/><path d="M0 0 70.9336 0.000209974" stroke="#000000" stroke-width="2" stroke-miterlimit="8" fill="none" fill-rule="evenodd" transform="matrix(1 0 0 -1 254 239)"/><path d="M0 0 40.9726 42.5082" stroke="#000000" stroke-width="2" stroke-miterlimit="8" fill="none" fill-rule="evenodd" transform="matrix(1 0 0 -1 364 222.508)"/><text font-family="Cambria Math,Cambria Math_MSFontService,sans-serif" font-weight="400" font-size="24" transform="translate(199.746 284)">­Юњћ</text><text font-family="Cambria Math,Cambria Math_MSFontService,sans-serif" font-weight="400" font-size="18" transform="translate(211.746 289)">­ЮЉќ</text><path d="M0.198158-0.268038 21.2562 15.3 20.8599 15.836-0.198158 0.268038ZM21.0581 15.568 21.2917 10.7663 23.2024 17.1533 16.5359 17.1992Z" transform="matrix(1 0 0 -1 404.5 365.653)"/><path d="M0.333333-9.27074e-07 0.333431 35.0818-0.333236 35.0818-0.333333 9.27074e-07ZM9.75703e-05 35.0818 4.00009 32.4151 0.000104987 37.7485-3.99991 32.4151Z" transform="matrix(1 0 0 -1 404.5 366.249)"/><path d="M404.5 365.167 434.827 365.167 434.827 365.833 404.5 365.833ZM434.827 365.5 432.161 361.5 437.494 365.5 432.161 369.5Z"/><text font-family="Calibri,Calibri_MSFontService,sans-serif" font-weight="400" font-size="16" transform="translate(439.271 368)">x</text><text font-family="Calibri,Calibri_MSFontService,sans-serif" font-weight="400" font-size="16" transform="translate(430.076 347)">y</text><text font-family="Calibri,Calibri_MSFontService,sans-serif" font-weight="400" font-size="16" transform="translate(401.145 326)">z</text><path d="M403.759 365.595 403.533 364.968 404.16 364.742 404.386 365.369ZM403.307 364.341 403.082 363.713 403.709 363.488 403.935 364.115ZM402.856 363.086 402.63 362.459 403.258 362.233 403.483 362.86ZM402.405 361.831 402.179 361.204 402.806 360.978 403.032 361.606ZM401.953 360.577 401.728 359.949 402.355 359.724 402.581 360.351ZM401.502 359.322 401.276 358.695 401.903 358.469 402.129 359.096ZM401.05 358.068 400.825 357.44 401.452 357.215 401.678 357.842ZM400.599 356.813 400.373 356.186 401.001 355.96 401.226 356.587ZM400.148 355.558 399.922 354.931 400.549 354.705 400.775 355.333ZM399.696 354.304 399.47 353.677 400.098 353.451 400.323 354.078ZM399.245 353.049 399.019 352.422 399.646 352.196 399.872 352.824ZM398.793 351.795 398.568 351.167 399.195 350.942 399.421 351.569ZM398.342 350.54 398.116 349.913 398.744 349.687 398.969 350.314ZM397.891 349.285 397.665 348.658 398.292 348.432 398.518 349.06ZM397.439 348.031 397.213 347.404 397.841 347.178 398.066 347.805ZM396.988 346.776 396.762 346.149 397.389 345.923 397.615 346.551ZM396.536 345.522 396.311 344.894 396.938 344.669 397.164 345.296ZM396.085 344.267 395.859 343.64 396.486 343.414 396.712 344.041ZM395.633 343.012 395.408 342.385 396.035 342.159 396.261 342.787ZM395.182 341.758 394.956 341.131 395.584 340.905 395.809 341.532ZM394.731 340.503 394.505 339.876 395.132 339.65 395.358 340.278ZM394.279 339.249 394.054 338.621 394.681 338.396 394.907 339.023ZM393.828 337.994 393.602 337.367 394.229 337.141 394.455 337.768ZM393.376 336.74 393.151 336.112 393.778 335.887 394.004 336.514ZM392.925 335.485 392.699 334.858 393.327 334.632 393.552 335.259ZM392.474 334.23 392.248 333.603 392.875 333.377 393.101 334.005ZM392.022 332.976 391.796 332.348 392.424 332.123 392.649 332.75ZM391.571 331.721 391.345 331.094 391.972 330.868 392.198 331.495ZM391.119 330.467 390.894 329.839 391.521 329.614 391.747 330.241ZM390.668 329.212 390.442 328.585 391.07 328.359 391.295 328.986ZM390.217 327.957 389.991 327.33 390.618 327.104 390.844 327.732ZM389.765 326.703 389.539 326.075 390.167 325.85 390.392 326.477ZM389.314 325.448 389.088 324.821 389.715 324.595 389.941 325.222ZM388.862 324.194 388.637 323.566 389.264 323.341 389.49 323.968ZM388.411 322.939 388.185 322.312 388.812 322.086 389.038 322.713ZM387.959 321.684 387.734 321.057 388.361 320.831 388.587 321.459ZM387.508 320.43 387.282 319.802 387.91 319.577 388.135 320.204ZM387.057 319.175 386.831 318.548 387.458 318.322 387.684 318.949ZM386.605 317.921 386.379 317.293 387.007 317.068 387.233 317.695ZM386.154 316.666 385.928 316.039 386.555 315.813 386.781 316.44ZM385.702 315.411 385.477 314.784 386.104 314.558 386.33 315.186ZM385.251 314.157 385.025 313.53 385.653 313.304 385.878 313.931ZM384.8 312.902 384.574 312.275 385.201 312.049 385.427 312.677ZM384.348 311.648 384.122 311.02 384.75 310.795 384.975 311.422ZM383.897 310.393 383.671 309.766 384.298 309.54 384.524 310.167ZM383.445 309.138 383.22 308.511 383.847 308.285 384.073 308.913ZM382.994 307.884 382.768 307.257 383.396 307.031 383.621 307.658ZM382.542 306.629 382.317 306.002 382.944 305.776 383.17 306.404ZM382.091 305.375 381.865 304.747 382.493 304.522 382.718 305.149ZM381.64 304.12 381.414 303.493 382.041 303.267 382.267 303.894ZM381.188 302.866 380.963 302.238 381.59 302.012 381.816 302.64ZM380.737 301.611 380.511 300.984 381.138 300.758 381.364 301.385ZM380.285 300.356 380.06 299.729 380.687 299.503 380.913 300.131ZM379.834 299.102 379.608 298.474 380.236 298.249 380.461 298.876ZM379.383 297.847 379.157 297.22 379.784 296.994 380.01 297.621ZM378.931 296.593 378.705 295.965 379.333 295.74 379.558 296.367ZM378.48 295.338 378.254 294.711 378.881 294.485 379.107 295.112ZM378.028 294.083 377.803 293.456 378.43 293.23 378.656 293.858ZM377.577 292.829 377.351 292.201 377.979 291.976 378.204 292.603ZM377.126 291.574 376.9 290.947 377.527 290.721 377.753 291.348ZM376.674 290.32 376.448 289.692 377.076 289.467 377.301 290.094ZM376.223 289.065 375.997 288.438 376.624 288.212 376.85 288.839ZM375.771 287.81 375.546 287.183 376.173 286.957 376.399 287.585ZM375.32 286.556 375.094 285.928 375.721 285.703 375.947 286.33ZM374.868 285.301 374.643 284.674 375.27 284.448 375.496 285.076ZM374.417 284.047 374.191 283.419 374.819 283.194 375.044 283.821ZM373.966 282.792 373.74 282.165 374.367 281.939 374.593 282.566ZM373.514 281.537 373.289 280.91 373.916 280.684 374.142 281.312ZM373.063 280.283 372.837 279.656 373.464 279.43 373.69 280.057ZM372.611 279.028 372.386 278.401 373.013 278.175 373.239 278.803ZM372.16 277.774 371.934 277.146 372.562 276.921 372.787 277.548ZM371.709 276.519 371.483 275.892 372.11 275.666 372.336 276.293ZM371.257 275.264 371.031 274.637 371.659 274.411 371.884 275.039ZM370.806 274.01 370.58 273.383 371.207 273.157 371.433 273.784ZM370.354 272.755 370.129 272.128 370.756 271.902 370.982 272.53ZM369.903 271.501 369.677 270.873 370.305 270.648 370.53 271.275ZM369.452 270.246 369.226 269.619 369.853 269.393 370.079 270.02ZM369 268.991 368.774 268.364 369.402 268.138 369.627 268.766ZM368.549 267.737 368.323 267.11 368.95 266.884 369.176 267.511ZM368.097 266.482 367.872 265.855 368.499 265.629 368.725 266.257ZM367.646 265.228 367.42 264.6 368.047 264.375 368.273 265.002ZM367.194 263.973 366.969 263.346 367.596 263.12 367.822 263.747ZM366.743 262.719 366.517 262.091 367.145 261.866 367.37 262.493ZM363.445 264.382 364.5 255.5 370.972 261.673Z" fill="#7F7F7F"/><text font-family="Cambria Math,Cambria Math_MSFontService,sans-serif" font-weight="400" font-size="24" transform="translate(371.881 346)">­ЮЉЦ</text><path d="M8.83594-15.668 5.89453-13.125 5.27344-13.8281 7.14844-15.457 0-15.457 0-16.5586 7.14844-16.5586 5.27344-18.1875 5.89453-18.8906 8.83594-16.3477Z" transform="translate(375.641 346)"/><text fill="#000000" fill-opacity="0" font-family="Arial,Arial_MSFontService,sans-serif" font-size="5.76562" y="-13.8457">нд</text><text font-family="Cambria Math,Cambria Math_MSFontService,sans-serif" font-weight="400" font-size="18" transform="translate(382.201 351)">­ЮЉЌ</text><path d="M766.5 261C766.5 248.021 777.021 237.5 790 237.5 802.979 237.5 813.5 248.021 813.5 261 813.5 273.979 802.979 284.5 790 284.5 777.021 284.5 766.5 273.979 766.5 261Z" stroke="#172C51" stroke-width="1.33333" stroke-miterlimit="8" fill="none" fill-rule="evenodd"/><text font-family="Calibri,Calibri_MSFontService,sans-serif" font-weight="400" font-size="24" transform="translate(774.708 268)">i=3</text><path d="M842.5 185C842.5 172.021 853.021 161.5 866 161.5 878.979 161.5 889.5 172.021 889.5 185 889.5 197.979 878.979 208.5 866 208.5 853.021 208.5 842.5 197.979 842.5 185Z" stroke="#172C51" stroke-width="1.33333" stroke-miterlimit="8" fill="none" fill-rule="evenodd"/><text font-family="Calibri,Calibri_MSFontService,sans-serif" font-weight="400" font-size="24" transform="translate(850.622 192)">j=4</text><path d="M686.5 344.5C686.5 331.798 696.797 321.5 709.5 321.5 722.203 321.5 732.5 331.798 732.5 344.5 732.5 357.203 722.203 367.5 709.5 367.5 696.797 367.5 686.5 357.203 686.5 344.5Z" stroke="#172C51" stroke-width="1.33333" stroke-miterlimit="8" fill="none" fill-rule="evenodd"/><text font-family="Calibri,Calibri_MSFontService,sans-serif" font-weight="400" font-size="24" transform="translate(702.793 352)">2</text><rect x="782.5" y="210.5" width="13" height="12" stroke="#172C51" stroke-miterlimit="8" fill="#DAE3F3"/><rect x="782.5" y="221.5" width="13" height="13" stroke="#172C51" stroke-miterlimit="8" fill="#4472C4"/><path d="M696.5 453.5C696.5 440.798 706.797 430.5 719.5 430.5 732.203 430.5 742.5 440.798 742.5 453.5 742.5 466.203 732.203 476.5 719.5 476.5 706.797 476.5 696.5 466.203 696.5 453.5Z" stroke="#172C51" stroke-width="1.33333" stroke-miterlimit="8" fill="none" fill-rule="evenodd"/><text font-family="Calibri,Calibri_MSFontService,sans-serif" font-weight="400" font-size="24" transform="translate(713.237 461)">1</text><path d="M842.5 91.0001C842.5 78.0214 853.021 67.5001 866 67.5001 878.979 67.5001 889.5 78.0214 889.5 91.0001 889.5 103.979 878.979 114.5 866 114.5 853.021 114.5 842.5 103.979 842.5 91.0001Z" stroke="#172C51" stroke-width="1.33333" stroke-miterlimit="8" fill="none" fill-rule="evenodd"/><text font-family="Calibri,Calibri_MSFontService,sans-serif" font-weight="400" font-size="24" transform="translate(859.372 98)">5</text><path d="M0 0 0.000104987 63.7797" stroke="#000000" stroke-width="2" stroke-miterlimit="8" fill="none" fill-rule="evenodd" transform="matrix(1 0 0 -1 709 430.78)"/><rect x="702.5" y="291.5" width="13" height="12" stroke="#172C51" stroke-miterlimit="8" fill="#C55A11"/><rect x="702.5" y="303.5" width="13" height="12" stroke="#172C51" stroke-miterlimit="8" fill="#8FAADC"/><rect x="673.5" y="441.5" width="13" height="12" stroke="#172C51" stroke-miterlimit="8" fill="#DAE3F3"/><rect x="673.5" y="453.5" width="13" height="12" stroke="#172C51" stroke-miterlimit="8" fill="#C55A11"/><rect x="895.5" y="172.5" width="13" height="13" stroke="#172C51" stroke-miterlimit="8" fill="#FFD966"/><rect x="895.5" y="184.5" width="13" height="12" stroke="#172C51" stroke-miterlimit="8" fill="#70AD47"/><rect x="895.5" y="75.5001" width="13" height="12" stroke="#172C51" stroke-miterlimit="8" fill="#DAE3F3"/><rect x="895.5" y="87.5001" width="13" height="12" stroke="#172C51" stroke-miterlimit="8" fill="#4472C4"/><path d="M0 0 47.7684 50.6256" stroke="#000000" stroke-width="2" stroke-miterlimit="8" fill="none" fill-rule="evenodd" transform="matrix(1 0 0 -1 725 327.626)"/><path d="M0 0 43.1833 43.3418" stroke="#000000" stroke-width="2" stroke-miterlimit="8" fill="none" fill-rule="evenodd" transform="matrix(1 0 0 -1 806 244.342)"/><path d="M0 0 0.000104987 47.3721" stroke="#000000" stroke-width="2" stroke-miterlimit="8" fill="none" fill-rule="evenodd" transform="matrix(1 0 0 -1 865 161.372)"/><text font-family="Cambria Math,Cambria Math_MSFontService,sans-serif" font-weight="400" font-size="24" transform="translate(754.172 207)">­Юњћ</text><text font-family="Cambria Math,Cambria Math_MSFontService,sans-serif" font-weight="400" font-size="18" transform="translate(766.172 213)">­ЮЉќ</text><text font-family="Cambria Math,Cambria Math_MSFontService,sans-serif" font-weight="400" font-size="18" transform="translate(766.172 197)">Рђ▓</text><text font-family="Cambria Math,Cambria Math_MSFontService,sans-serif" font-weight="400" font-size="24" transform="translate(780.532 207)">=</text><text font-family="Cambria Math,Cambria Math_MSFontService,sans-serif" font-weight="400" font-size="24" transform="translate(804.978 207)">­Юњћ</text><text font-family="Cambria Math,Cambria Math_MSFontService,sans-serif" font-weight="400" font-size="18" transform="translate(816.978 212)">­Юњі</text><path d="M0.222769-0.247962 21.4415 18.8149 20.9959 19.3108-0.222769 0.247962ZM21.2187 19.0629 21.9082 14.3052 23.2024 20.845 16.5618 20.2563Z" transform="matrix(1 0 0 -1 824.5 396.345)"/><path d="M0.333333-7.62883e-07 0.333432 43.2062-0.333234 43.2062-0.333333 7.62883e-07ZM9.88838e-05 43.2062 4.00009 40.5395 0.000104987 45.8729-3.99991 40.5395Z" transform="matrix(1 0 0 -1 824.5 396.373)"/><path d="M824.5 396.167 854.827 396.167 854.827 396.833 824.5 396.833ZM854.827 396.5 852.161 392.5 857.494 396.5 852.161 400.5Z"/><text font-family="Calibri,Calibri_MSFontService,sans-serif" font-weight="400" font-size="16" transform="translate(858.958 395)">x</text><text font-family="Calibri,Calibri_MSFontService,sans-serif" font-weight="400" font-size="16" transform="translate(849.763 369)">y</text><text font-family="Calibri,Calibri_MSFontService,sans-serif" font-weight="400" font-size="16" transform="translate(820.831 344)">z</text><path d="M0.32431-0.0770314 0.478373 0.57159-0.170248 0.725652-0.32431 0.0770314ZM0.632436 1.22021 0.786499 1.86883 0.137878 2.02289-0.0161851 1.37427ZM0.940561 2.51745 1.09462 3.16607 0.446003 3.32014 0.29194 2.67151ZM1.24869 3.81469 1.40275 4.46332 0.754128 4.61738 0.600066 3.96876ZM1.55681 5.11194 1.71087 5.76056 1.06225 5.91462 0.908191 5.266ZM1.86494 6.40918 2.019 7.0578 1.37038 7.21186 1.21632 6.56324ZM2.17306 7.70642 2.32713 8.35504 1.6785 8.5091 1.52444 7.86048ZM2.48119 9.00366 2.63525 9.65228 1.98663 9.80635 1.83257 9.15773ZM2.78931 10.3009 2.94338 10.9495 2.29476 11.1036 2.14069 10.455ZM3.09744 11.5981 3.2515 12.2468 2.60288 12.4008 2.44882 11.7522ZM3.40556 12.8954 3.55963 13.544 2.91101 13.6981 2.75694 13.0495ZM3.71369 14.1926 3.86775 14.8413 3.21913 14.9953 3.06507 14.3467ZM4.02181 15.4899 4.17588 16.1385 3.52726 16.2926 3.37319 15.6439ZM4.32994 16.7871 4.484 17.4357 3.83538 17.5898 3.68132 16.9412ZM4.63807 18.0844 4.79213 18.733 4.14351 18.887 3.98944 18.2384ZM4.94619 19.3816 5.10025 20.0302 4.45163 20.1843 4.29757 19.5357ZM5.25432 20.6788 5.40838 21.3275 4.75976 21.4815 4.60569 20.8329ZM5.56244 21.9761 5.7165 22.6247 5.06788 22.7788 4.91382 22.1301ZM5.87057 23.2733 6.02463 23.9219 5.37601 24.076 5.22194 23.4274ZM6.17869 24.5706 6.33275 25.2192 5.68413 25.3732 5.53007 24.7246ZM6.48682 25.8678 6.64088 26.5164 5.99226 26.6705 5.83819 26.0219ZM6.79494 27.165 6.949 27.8137 6.30038 27.9677 6.14632 27.3191ZM7.10307 28.4623 7.25713 29.1109 6.60851 29.265 6.45445 28.6163ZM7.41119 29.7595 7.56525 30.4081 6.91663 30.5622 6.76257 29.9136ZM7.71932 31.0568 7.87338 31.7054 7.22476 31.8595 7.0707 31.2108ZM8.02744 32.354 8.1815 33.0026 7.53288 33.1567 7.37882 32.5081ZM8.33557 33.6513 8.48963 34.2999 7.84101 34.4539 7.68695 33.8053ZM8.64369 34.9485 8.79775 35.5971 8.14913 35.7512 7.99507 35.1026ZM8.95182 36.2457 9.10588 36.8944 8.45726 37.0484 8.3032 36.3998ZM9.25994 37.543 9.414 38.1916 8.76538 38.3457 8.61132 37.6971ZM9.56807 38.8402 9.72213 39.4889 9.07351 39.6429 8.91945 38.9943ZM9.87619 40.1375 10.0303 40.7861 9.38163 40.9402 9.22757 40.2915ZM10.1843 41.4347 10.3384 42.0833 9.68976 42.2374 9.5357 41.5888ZM10.4924 42.732 10.6465 43.3806 9.99788 43.5347 9.84382 42.886ZM10.8006 44.0292 10.9546 44.6778 10.306 44.8319 10.1519 44.1833ZM11.1087 45.3265 11.2628 45.9751 10.6141 46.1291 10.4601 45.4805ZM11.4168 46.6237 11.5709 47.2723 10.9223 47.4264 10.7682 46.7778ZM11.7249 47.9209 11.879 48.5696 11.2304 48.7236 11.0763 48.075ZM12.0331 49.2182 12.1871 49.8668 11.5385 50.0209 11.3844 49.3722ZM12.3412 50.5154 12.4953 51.1641 11.8466 51.3181 11.6926 50.6695ZM12.6493 51.8127 12.8034 52.4613 12.1548 52.6154 12.0007 51.9667ZM12.9574 53.1099 13.1115 53.7585 12.4629 53.9126 12.3088 53.264ZM13.2656 54.4072 13.4196 55.0558 12.771 55.2098 12.6169 54.5612ZM13.5737 55.7044 13.7278 56.353 13.0791 56.5071 12.9251 55.8585ZM13.8818 57.0016 14.0359 57.6503 13.3873 57.8043 13.2332 57.1557ZM14.1899 58.2989 14.344 58.9475 13.6954 59.1016 13.5413 58.453ZM14.4981 59.5961 14.6521 60.2448 14.0035 60.3988 13.8494 59.7502ZM14.8062 60.8934 14.9603 61.542 14.3116 61.6961 14.1576 61.0474ZM15.1143 62.1906 15.2684 62.8392 14.6198 62.9933 14.4657 62.3447ZM15.4224 63.4879 15.5765 64.1365 14.9279 64.2906 14.7738 63.6419ZM15.7306 64.7851 15.8846 65.4337 15.236 65.5878 15.082 64.9392ZM16.0387 66.0824 16.1928 66.731 15.5441 66.885 15.3901 66.2364ZM16.3468 67.3796 16.5009 68.0282 15.8523 68.1823 15.6982 67.5337ZM16.655 68.6768 16.809 69.3255 16.1604 69.4795 16.0063 68.8309ZM16.9631 69.9741 17.1171 70.6227 16.4685 70.7768 16.3145 70.1282ZM17.2712 71.2713 17.4253 71.92 16.7766 72.074 16.6226 71.4254ZM17.5793 72.5686 17.7334 73.2172 17.0848 73.3713 16.9307 72.7226ZM17.8875 73.8658 18.0415 74.5144 17.3929 74.6685 17.2388 74.0199ZM18.1956 75.1631 18.3497 75.8117 17.701 75.9658 17.547 75.3171ZM18.5037 76.4603 18.6578 77.1089 18.0092 77.263 17.8551 76.6144ZM18.8118 77.7576 18.9659 78.4062 18.3173 78.5602 18.1632 77.9116ZM19.12 79.0548 19.274 79.7034 18.6254 79.8575 18.4713 79.2089ZM19.4281 80.352 19.5822 81.0007 18.9335 81.1547 18.7795 80.5061ZM19.7362 81.6493 19.8903 82.2979 19.2417 82.452 19.0876 81.8034ZM20.0443 82.9465 20.1984 83.5951 19.5498 83.7492 19.3957 83.1006ZM20.3525 84.2438 20.5065 84.8924 19.8579 85.0465 19.7039 84.3978ZM20.6606 85.541 20.8147 86.1896 20.166 86.3437 20.012 85.6951ZM20.9687 86.8383 21.1228 87.4869 20.4742 87.6409 20.3201 86.9923ZM21.2769 88.1355 21.4309 88.7841 20.7823 88.9382 20.6282 88.2896ZM21.585 89.4327 21.739 90.0814 21.0904 90.2354 20.9364 89.5868ZM21.8931 90.73 22.0472 91.3786 21.3986 91.5327 21.2445 90.8841ZM22.2012 92.0272 22.3553 92.6759 21.7067 92.8299 21.5526 92.1813ZM22.5094 93.3245 22.6634 93.9731 22.0148 94.1272 21.8607 93.4785ZM22.8175 94.6217 22.9715 95.2703 22.3229 95.4244 22.1689 94.7758ZM23.1256 95.919 23.2797 96.5676 22.6311 96.7217 22.477 96.073ZM23.4337 97.2162 23.5878 97.8648 22.9392 98.0189 22.7851 97.3703ZM23.7419 98.5135 23.8959 99.1621 23.2473 99.3161 23.0932 98.6675ZM24.05 99.8107 24.204 100.459 23.5554 100.613 23.4014 99.9648ZM24.3581 101.108 24.5122 101.757 23.8636 101.911 23.7095 101.262ZM24.6662 102.405 24.8203 103.054 24.1717 103.208 24.0176 102.559ZM24.9744 103.702 25.1284 104.351 24.4798 104.505 24.3257 103.856ZM25.2825 105 25.4366 105.648 24.7879 105.802 24.6339 105.154ZM25.5906 106.297 25.7447 106.946 25.0961 107.1 24.942 106.451ZM25.8987 107.594 26.0528 108.243 25.4042 108.397 25.2501 107.748ZM26.2069 108.891 26.3609 109.54 25.7123 109.694 25.5582 109.045ZM26.515 110.189 26.6691 110.837 26.0204 110.991 25.8664 110.343ZM26.8231 111.486 26.9772 112.135 26.3286 112.289 26.1745 111.64ZM27.1312 112.783 27.2853 113.432 26.6367 113.586 26.4826 112.937ZM27.4394 114.08 27.5934 114.729 26.9448 114.883 26.7907 114.234ZM27.7475 115.378 27.9015 116.026 27.2529 116.18 27.0989 115.532ZM28.0556 116.675 28.2097 117.323 27.561 117.478 27.407 116.829ZM28.3637 117.972 28.5178 118.621 27.8692 118.775 27.7151 118.126ZM28.6719 119.269 28.8259 119.918 28.1773 120.072 28.0232 119.423ZM28.98 120.567 29.134 121.215 28.4854 121.369 28.3314 120.721ZM29.2881 121.864 29.4422 122.512 28.7935 122.667 28.6395 122.018ZM29.5962 123.161 29.7503 123.81 29.1017 123.964 28.9476 123.315ZM29.9044 124.458 30.0584 125.107 29.4098 125.261 29.2557 124.612ZM30.2125 125.756 30.3665 126.404 29.7179 126.558 29.5639 125.91ZM30.5206 127.053 30.6747 127.701 30.026 127.856 29.872 127.207ZM30.8287 128.35 30.9828 128.999 30.3342 129.153 30.1801 128.504ZM31.1368 129.647 31.2909 130.296 30.6423 130.45 30.4882 129.801ZM31.445 130.945 31.599 131.593 30.9504 131.747 30.7963 131.099ZM31.7531 132.242 31.9072 132.89 31.2585 133.044 31.1045 132.396ZM32.0612 133.539 32.2153 134.188 31.5667 134.342 31.4126 133.693ZM32.3693 134.836 32.5234 135.485 31.8748 135.639 31.7207 134.99ZM32.6775 136.134 32.8315 136.782 32.1829 136.936 32.0288 136.288ZM32.9856 137.431 33.1396 138.079 32.491 138.233 32.337 137.585ZM33.2937 138.728 33.4478 139.377 32.7991 139.531 32.6451 138.882ZM33.6018 140.025 33.7559 140.674 33.1073 140.828 32.9532 140.179ZM33.91 141.322 34.064 141.971 33.4154 142.125 33.2613 141.477ZM34.2181 142.62 34.3721 143.268 33.7235 143.422 33.5695 142.774ZM34.5262 143.917 34.6803 144.566 34.0316 144.72 33.8776 144.071ZM34.8343 145.214 34.9884 145.863 34.3398 146.017 34.1857 145.368ZM35.1425 146.511 35.2965 147.16 34.6479 147.314 34.4938 146.666ZM35.4506 147.809 35.6046 148.457 34.956 148.611 34.802 147.963ZM35.7587 149.106 35.9128 149.755 35.2642 149.909 35.1101 149.26ZM36.0668 150.403 36.2209 151.052 35.5723 151.206 35.4182 150.557ZM36.375 151.7 36.529 152.349 35.8804 152.503 35.7263 151.854ZM36.6831 152.998 36.8372 153.646 36.1885 153.8 36.0345 153.152ZM36.9912 154.295 37.1453 154.943 36.4967 155.098 36.3426 154.449ZM37.2993 155.592 37.4534 156.241 36.8048 156.395 36.6507 155.746ZM37.6075 156.889 37.7615 157.538 37.1129 157.692 36.9589 157.043ZM37.9156 158.187 38.0697 158.835 37.421 158.989 37.267 158.341ZM38.2237 159.484 38.3778 160.132 37.7292 160.286 37.5751 159.638ZM38.5319 160.781 38.6859 161.43 38.0373 161.584 37.8832 160.935ZM38.84 162.078 38.994 162.727 38.3454 162.881 38.1914 162.232ZM39.1481 163.375 39.3022 164.024 38.6535 164.178 38.4995 163.53ZM39.4562 164.673 39.6103 165.321 38.9617 165.475 38.8076 164.827ZM39.7644 165.97 39.9184 166.619 39.2698 166.773 39.1157 166.124ZM40.0725 167.267 40.2265 167.916 39.5779 168.07 39.4239 167.421ZM40.3806 168.564 40.4891 169.021 39.8405 169.175 39.732 168.718ZM43.7484 166.877 41.7054 175.584 35.9649 168.725Z" fill="#7F7F7F" transform="matrix(1 0 0 -1 824.5 384.084)"/><text font-family="Cambria Math,Cambria Math_MSFontService,sans-serif" font-weight="400" font-size="24" transform="translate(792.961 315)">­ЮЉЦ</text><path d="M8.83594-15.668 5.89453-13.125 5.27344-13.8281 7.14844-15.457 0-15.457 0-16.5586 7.14844-16.5586 5.27344-18.1875 5.89453-18.8906 8.83594-16.3477Z" transform="translate(796.721 315)"/><text fill="#000000" fill-opacity="0" font-family="Arial,Arial_MSFontService,sans-serif" font-size="5.76562" y="-13.8457">нд</text><text font-family="Cambria Math,Cambria Math_MSFontService,sans-serif" font-weight="400" font-size="18" transform="translate(803.281 321)">­ЮЉЌ</text><text font-family="Cambria Math,Cambria Math_MSFontService,sans-serif" font-weight="400" font-size="18" transform="translate(806.928 305)">Рђ▓</text><text font-family="Cambria Math,Cambria Math_MSFontService,sans-serif" font-weight="400" font-size="24" transform="translate(820.695 315)">=</text><text font-family="Cambria Math,Cambria Math_MSFontService,sans-serif" font-weight="400" font-size="24" transform="translate(845.141 315)">­ЮЉЦ</text><path d="M8.83594-15.668 5.89453-13.125 5.27344-13.8281 7.14844-15.457 0-15.457 0-16.5586 7.14844-16.5586 5.27344-18.1875 5.89453-18.8906 8.83594-16.3477Z" transform="translate(848.901 315)"/><text fill="#000000" fill-opacity="0" font-family="Arial,Arial_MSFontService,sans-serif" font-size="5.76562" y="-13.8457">нд</text><text font-family="Cambria Math,Cambria Math_MSFontService,sans-serif" font-weight="400" font-size="18" transform="translate(855.461 320)">­ЮЉЌ</text><text font-family="Cambria Math,Cambria Math_MSFontService,sans-serif" font-weight="400" font-size="24" transform="translate(865.208 315)">­ЮЉ╣</text><text font-family="Cambria Math,Cambria Math_MSFontService,sans-serif" font-weight="400" font-size="24" transform="translate(887.161 315)">+</text><text font-family="Cambria Math,Cambria Math_MSFontService,sans-serif" font-weight="400" font-size="24" transform="translate(910.281 315)">­ЮЉА</text><path d="M8.83594-15.668 5.89453-13.125 5.27344-13.8281 7.14844-15.457 0-15.457 0-16.5586 7.14844-16.5586 5.27344-18.1875 5.89453-18.8906 8.83594-16.3477Z" transform="translate(912.001 312)"/><text fill="#000000" fill-opacity="0" font-family="Arial,Arial_MSFontService,sans-serif" font-size="5.76562" y="-13.8457">нд</text><path d="M448 276 551.587 276 551.587 280 448 280ZM549.587 272 561.587 278 549.587 284Z"/><text font-family="Cambria Math,Cambria Math_MSFontService,sans-serif" font-weight="400" font-size="24" transform="translate(509.845 269)">­ЮЉ╣</text><text font-family="Cambria Math,Cambria Math_MSFontService,sans-serif" font-weight="400" font-size="24" transform="translate(526.511 269)">,</text><text font-family="Cambria Math,Cambria Math_MSFontService,sans-serif" font-weight="400" font-size="24" transform="translate(535.311 269)">­ЮЉА</text><path d="M8.83594-15.668 5.89453-13.125 5.27344-13.8281 7.14844-15.457 0-15.457 0-16.5586 7.14844-16.5586 5.27344-18.1875 5.89453-18.8906 8.83594-16.3477Z" transform="translate(537.031 266)"/><text fill="#000000" fill-opacity="0" font-family="Arial,Arial_MSFontService,sans-serif" font-size="5.76562" y="-13.8457">нд</text><text font-family="Cambria Math,Cambria Math_MSFontService,sans-serif" font-weight="400" font-size="24" transform="translate(551.838 269)">Рѕѕ</text><text font-family="Cambria Math,Cambria Math_MSFontService,sans-serif" font-weight="400" font-size="24" transform="translate(573.285 269)">­ЮЉє­ЮљИ</text><text font-family="Cambria Math,Cambria Math_MSFontService,sans-serif" font-weight="400" font-size="24" transform="translate(601.711 269)">(</text><text font-family="Cambria Math,Cambria Math_MSFontService,sans-serif" font-weight="400" font-size="24" transform="translate(611.545 269)">3</text><text font-family="Cambria Math,Cambria Math_MSFontService,sans-serif" font-weight="400" font-size="24" transform="translate(624.711 269)">)</text></g></svg>