<svg width="960" height="540" xmlns="http://www.w3.org/2000/svg" xmlns:xlink="http://www.w3.org/1999/xlink" overflow="hidden"><defs><clipPath id="clip0"><rect x="0" y="0" width="960" height="540"/></clipPath></defs><g clip-path="url(#clip0)"><rect x="0" y="0" width="960" height="540" fill="#FFFFFF"/><path d="M207.5 239.5C207.5 226.798 218.021 216.5 231 216.5 243.979 216.5 254.5 226.798 254.5 239.5 254.5 252.203 243.979 262.5 231 262.5 218.021 262.5 207.5 252.203 207.5 239.5Z" stroke="#172C51" stroke-width="1.33333" stroke-miterlimit="8" fill="none" fill-rule="evenodd"/><text font-family="Calibri,Calibri_MSFontService,sans-serif" font-weight="400" font-size="24" transform="translate(215.995 247)">i=3</text><path d="M325.5 239.5C325.5 226.798 335.798 216.5 348.5 216.5 361.203 216.5 371.5 226.798 371.5 239.5 371.5 252.203 361.203 262.5 348.5 262.5 335.798 262.5 325.5 252.203 325.5 239.5Z" stroke="#172C51" stroke-width="1.33333" stroke-miterlimit="8" fill="none" fill-rule="evenodd"/><text font-family="Calibri,Calibri_MSFontService,sans-serif" font-weight="400" font-size="24" transform="translate(333.25 247)">j=4</text><path d="M85.5001 239.5C85.5001 226.798 96.0214 216.5 109 216.5 121.979 216.5 132.5 226.798 132.5 239.5 132.5 252.203 121.979 262.5 109 262.5 96.0214 262.5 85.5001 252.203 85.5001 239.5Z" stroke="#172C51" stroke-width="1.33333" stroke-miterlimit="8" fill="none" fill-rule="evenodd"/><text font-family="Calibri,Calibri_MSFontService,sans-serif" font-weight="400" font-size="24" transform="translate(102.544 247)">2</text><rect x="224.5" y="268.5" width="13" height="13" stroke="#172C51" stroke-miterlimit="8" fill="#DAE3F3"/><rect x="224.5" y="280.5" width="13" height="13" stroke="#172C51" stroke-miterlimit="8" fill="#4472C4"/><path d="M8.50005 310.5C8.50005 297.798 19.0214 287.5 32.0001 287.5 44.9787 287.5 55.5001 297.798 55.5001 310.5 55.5001 323.203 44.9787 333.5 32.0001 333.5 19.0214 333.5 8.50005 323.203 8.50005 310.5Z" stroke="#172C51" stroke-width="1.33333" stroke-miterlimit="8" fill="none" fill-rule="evenodd"/><text font-family="Calibri,Calibri_MSFontService,sans-serif" font-weight="400" font-size="24" transform="translate(25.3978 317)">1</text><path d="M399.5 164.5C399.5 151.798 409.798 141.5 422.5 141.5 435.203 141.5 445.5 151.798 445.5 164.5 445.5 177.203 435.203 187.5 422.5 187.5 409.798 187.5 399.5 177.203 399.5 164.5Z" stroke="#172C51" stroke-width="1.33333" stroke-miterlimit="8" fill="none" fill-rule="evenodd"/><text font-family="Calibri,Calibri_MSFontService,sans-serif" font-weight="400" font-size="24" transform="translate(415.786 171)">5</text><path d="M0 0 44.3327 37.7497" stroke="#000000" stroke-width="2" stroke-miterlimit="8" fill="none" fill-rule="evenodd" transform="matrix(1 0 0 -1 48 293.75)"/><text font-family="Cambria Math,Cambria Math_MSFontService,sans-serif" font-weight="400" font-size="19" transform="translate(261.007 232)">­ЮЉј</text><text font-family="Cambria Math,Cambria Math_MSFontService,sans-serif" font-weight="400" font-size="14" transform="translate(271.34 236)">­ЮЉќ­ЮЉЌ</text><text font-family="Cambria Math,Cambria Math_MSFontService,sans-serif" font-weight="400" font-size="19" transform="translate(288.713 232)">РЅа</text><text font-family="Cambria Math,Cambria Math_MSFontService,sans-serif" font-weight="400" font-size="19" transform="translate(307.693 232)">0</text><rect x="102.5" y="186.5" width="13" height="12" stroke="#172C51" stroke-miterlimit="8" fill="#C55A11"/><rect x="102.5" y="198.5" width="13" height="12" stroke="#172C51" stroke-miterlimit="8" fill="#8FAADC"/><rect x="25.5001" y="336.5" width="13" height="13" stroke="#172C51" stroke-miterlimit="8" fill="#DAE3F3"/><rect x="25.5001" y="348.5" width="13" height="13" stroke="#172C51" stroke-miterlimit="8" fill="#C55A11"/><rect x="343.5" y="268.5" width="12" height="13" stroke="#172C51" stroke-miterlimit="8" fill="#FFD966"/><rect x="343.5" y="280.5" width="12" height="13" stroke="#172C51" stroke-miterlimit="8" fill="#70AD47"/><rect x="422.5" y="192.5" width="12" height="12" stroke="#172C51" stroke-miterlimit="8" fill="#DAE3F3"/><rect x="422.5" y="204.5" width="12" height="12" stroke="#172C51" stroke-miterlimit="8" fill="#4472C4"/><path d="M0 0 75.7131 0.115696" stroke="#000000" stroke-width="2" stroke-miterlimit="8" fill="none" fill-rule="evenodd" transform="matrix(1 0 0 -1 132 239.116)"/><path d="M0 0 70.9336 0.000209974" stroke="#000000" stroke-width="2" stroke-miterlimit="8" fill="none" fill-rule="evenodd" transform="matrix(1 0 0 -1 254 239)"/><path d="M0 0 40.9726 42.5082" stroke="#000000" stroke-width="2" stroke-miterlimit="8" fill="none" fill-rule="evenodd" transform="matrix(1 0 0 -1 364 222.508)"/><text font-family="Cambria Math,Cambria Math_MSFontService,sans-serif" font-weight="400" font-size="24" transform="translate(199.746 284)">­Юњћ</text><text font-family="Cambria Math,Cambria Math_MSFontService,sans-serif" font-weight="400" font-size="18" transform="translate(211.746 289)">­ЮЉќ</text><path d="M0.198158-0.268038 21.2562 15.3 20.8599 15.836-0.198158 0.268038ZM21.0581 15.568 21.2917 10.7663 23.2024 17.1533 16.5359 17.1992Z" transform="matrix(1 0 0 -1 404.5 365.653)"/><path d="M0.333333-9.27074e-07 0.333431 35.0818-0.333236 35.0818-0.333333 9.27074e-07ZM9.75703e-05 35.0818 4.00009 32.4151 0.000104987 37.7485-3.99991 32.4151Z" transform="matrix(1 0 0 -1 404.5 366.249)"/><path d="M404.5 365.167 434.827 365.167 434.827 365.833 404.5 365.833ZM434.827 365.5 432.161 361.5 437.494 365.5 432.161 369.5Z"/><text font-family="Calibri,Calibri_MSFontService,sans-serif" font-weight="400" font-size="16" transform="translate(439.271 368)">x</text><text font-family="Calibri,Calibri_MSFontService,sans-serif" font-weight="400" font-size="16" transform="translate(430.076 347)">y</text><text font-family="Calibri,Calibri_MSFontService,sans-serif" font-weight="400" font-size="16" transform="translate(401.145 326)">z</text><path d="M403.759 365.595 403.533 364.968 404.16 364.742 404.386 365.369ZM403.307 364.341 403.082 363.713 403.709 363.488 403.935 364.115ZM402.856 363.086 402.63 362.459 403.258 362.233 403.483 362.86ZM402.405 361.831 402.179 361.204 402.806 360.978 403.032 361.606ZM401.953 360.577 401.728 359.949 402.355 359.724 402.581 360.351ZM401.502 359.322 401.276 358.695 401.903 358.469 402.129 359.096ZM401.05 358.068 400.825 357.44 401.452 357.215 401.678 357.842ZM400.599 356.813 400.373 356.186 401.001 355.96 401.226 356.587ZM400.148 355.558 399.922 354.931 400.549 354.705 400.775 355.333ZM399.696 354.304 399.47 353.677 400.098 353.451 400.323 354.078ZM399.245 353.049 399.019 352.422 399.646 352.196 399.872 352.824ZM398.793 351.795 398.568 351.167 399.195 350.942 399.421 351.569ZM398.342 350.54 398.116 349.913 398.744 349.687 398.969 350.314ZM397.891 349.285 397.665 348.658 398.292 348.432 398.518 349.06ZM397.439 348.031 397.213 347.404 397.841 347.178 398.066 347.805ZM396.988 346.776 396.762 346.149 397.389 345.923 397.615 346.551ZM396.536 345.522 396.311 344.894 396.938 344.669 397.164 345.296ZM396.085 344.267 395.859 343.64 396.486 343.414 396.712 344.041ZM395.633 343.012 395.408 342.385 396.035 342.159 396.261 342.787ZM395.182 341.758 394.956 341.131 395.584 340.905 395.809 341.532ZM394.731 340.503 394.505 339.876 395.132 339.65 395.358 340.278ZM394.279 339.249 394.054 338.621 394.681 338.396 394.907 339.023ZM393.828 337.994 393.602 337.367 394.229 337.141 394.455 337.768ZM393.376 336.74 393.151 336.112 393.778 335.887 394.004 336.514ZM392.925 335.485 392.699 334.858 393.327 334.632 393.552 335.259ZM392.474 334.23 392.248 333.603 392.875 333.377 393.101 334.005ZM392.022 332.976 391.796 332.348 392.424 332.123 392.649 332.75ZM391.571 331.721 391.345 331.094 391.972 330.868 392.198 331.495ZM391.119 330.467 390.894 329.839 391.521 329.614 391.747 330.241ZM390.668 329.212 390.442 328.585 391.07 328.359 391.295 328.986ZM390.217 327.957 389.991 327.33 390.618 327.104 390.844 327.732ZM389.765 326.703 389.539 326.075 390.167 325.85 390.392 326.477ZM389.314 325.448 389.088 324.821 389.715 324.595 389.941 325.222ZM388.862 324.194 388.637 323.566 389.264 323.341 389.49 323.968ZM388.411 322.939 388.185 322.312 388.812 322.086 389.038 322.713ZM387.959 321.684 387.734 321.057 388.361 320.831 388.587 321.459ZM387.508 320.43 387.282 319.802 387.91 319.577 388.135 320.204ZM387.057 319.175 386.831 318.548 387.458 318.322 387.684 318.949ZM386.605 317.921 386.379 317.293 387.007 317.068 387.233 317.695ZM386.154 316.666 385.928 316.039 386.555 315.813 386.781 316.44ZM385.702 315.411 385.477 314.784 386.104 314.558 386.33 315.186ZM385.251 314.157 385.025 313.53 385.653 313.304 385.878 313.931ZM384.8 312.902 384.574 312.275 385.201 312.049 385.427 312.677ZM384.348 311.648 384.122 311.02 384.75 310.795 384.975 311.422ZM383.897 310.393 383.671 309.766 384.298 309.54 384.524 310.167ZM383.445 309.138 383.22 308.511 383.847 308.285 384.073 308.913ZM382.994 307.884 382.768 307.257 383.396 307.031 383.621 307.658ZM382.542 306.629 382.317 306.002 382.944 305.776 383.17 306.404ZM382.091 305.375 381.865 304.747 382.493 304.522 382.718 305.149ZM381.64 304.12 381.414 303.493 382.041 303.267 382.267 303.894ZM381.188 302.866 380.963 302.238 381.59 302.012 381.816 302.64ZM380.737 301.611 380.511 300.984 381.138 300.758 381.364 301.385ZM380.285 300.356 380.06 299.729 380.687 299.503 380.913 300.131ZM379.834 299.102 379.608 298.474 380.236 298.249 380.461 298.876ZM379.383 297.847 379.157 297.22 379.784 296.994 380.01 297.621ZM378.931 296.593 378.705 295.965 379.333 295.74 379.558 296.367ZM378.48 295.338 378.254 294.711 378.881 294.485 379.107 295.112ZM378.028 294.083 377.803 293.456 378.43 293.23 378.656 293.858ZM377.577 292.829 377.351 292.201 377.979 291.976 378.204 292.603ZM377.126 291.574 376.9 290.947 377.527 290.721 377.753 291.348ZM376.674 290.32 376.448 289.692 377.076 289.467 377.301 290.094ZM376.223 289.065 375.997 288.438 376.624 288.212 376.85 288.839ZM375.771 287.81 375.546 287.183 376.173 286.957 376.399 287.585ZM375.32 286.556 375.094 285.928 375.721 285.703 375.947 286.33ZM374.868 285.301 374.643 284.674 375.27 284.448 375.496 285.076ZM374.417 284.047 374.191 283.419 374.819 283.194 375.044 283.821ZM373.966 282.792 373.74 282.165 374.367 281.939 374.593 282.566ZM373.514 281.537 373.289 280.91 373.916 280.684 374.142 281.312ZM373.063 280.283 372.837 279.656 373.464 279.43 373.69 280.057ZM372.611 279.028 372.386 278.401 373.013 278.175 373.239 278.803ZM372.16 277.774 371.934 277.146 372.562 276.921 372.787 277.548ZM371.709 276.519 371.483 275.892 372.11 275.666 372.336 276.293ZM371.257 275.264 371.031 274.637 371.659 274.411 371.884 275.039ZM370.806 274.01 370.58 273.383 371.207 273.157 371.433 273.784ZM370.354 272.755 370.129 272.128 370.756 271.902 370.982 272.53ZM369.903 271.501 369.677 270.873 370.305 270.648 370.53 271.275ZM369.452 270.246 369.226 269.619 369.853 269.393 370.079 270.02ZM369 268.991 368.774 268.364 369.402 268.138 369.627 268.766ZM368.549 267.737 368.323 267.11 368.95 266.884 369.176 267.511ZM368.097 266.482 367.872 265.855 368.499 265.629 368.725 266.257ZM367.646 265.228 367.42 264.6 368.047 264.375 368.273 265.002ZM367.194 263.973 366.969 263.346 367.596 263.12 367.822 263.747ZM366.743 262.719 366.517 262.091 367.145 261.866 367.37 262.493ZM363.445 264.382 364.5 255.5 370.972 261.673Z" fill="#7F7F7F"/><text font-family="Cambria Math,Cambria Math_MSFontService,sans-serif" font-weight="400" font-size="24" transform="translate(371.881 346)">­ЮЉЦ</text><path d="M8.83594-15.668 5.89453-13.125 5.27344-13.8281 7.14844-15.457 0-15.457 0-16.5586 7.14844-16.5586 5.27344-18.1875 5.89453-18.8906 8.83594-16.3477Z" transform="translate(375.641 346)"/><text fill="#000000" fill-opacity="0" font-family="Arial,Arial_MSFontService,sans-serif" font-size="5.76562" y="-13.8457">нд</text><text font-family="Cambria Math,Cambria Math_MSFontService,sans-serif" font-weight="400" font-size="18" transform="translate(382.201 351)">­ЮЉЌ</text><path d="M766.5 261C766.5 248.021 777.021 237.5 790 237.5 802.979 237.5 813.5 248.021 813.5 261 813.5 273.979 802.979 284.5 790 284.5 777.021 284.5 766.5 273.979 766.5 261Z" stroke="#172C51" stroke-width="1.33333" stroke-miterlimit="8" fill="none" fill-rule="evenodd"/><text font-family="Calibri,Calibri_MSFontService,sans-serif" font-weight="400" font-size="24" transform="translate(774.708 268)">i=3</text><path d="M842.5 185C842.5 172.021 853.021 161.5 866 161.5 878.979 161.5 889.5 172.021 889.5 185 889.5 197.979 878.979 208.5 866 208.5 853.021 208.5 842.5 197.979 842.5 185Z" stroke="#172C51" stroke-width="1.33333" stroke-miterlimit="8" fill="none" fill-rule="evenodd"/><text font-family="Calibri,Calibri_MSFontService,sans-serif" font-weight="400" font-size="24" transform="translate(850.622 192)">j=4</text><path d="M686.5 344.5C686.5 331.798 696.797 321.5 709.5 321.5 722.203 321.5 732.5 331.798 732.5 344.5 732.5 357.203 722.203 367.5 709.5 367.5 696.797 367.5 686.5 357.203 686.5 344.5Z" stroke="#172C51" stroke-width="1.33333" stroke-miterlimit="8" fill="none" fill-rule="evenodd"/><text font-family="Calibri,Calibri_MSFontService,sans-serif" font-weight="400" font-size="24" transform="translate(702.793 352)">2</text><rect x="782.5" y="210.5" width="13" height="12" stroke="#172C51" stroke-miterlimit="8" fill="#DAE3F3"/><rect x="782.5" y="221.5" width="13" height="13" stroke="#172C51" stroke-miterlimit="8" fill="#4472C4"/><path d="M696.5 453.5C696.5 440.798 706.797 430.5 719.5 430.5 732.203 430.5 742.5 440.798 742.5 453.5 742.5 466.203 732.203 476.5 719.5 476.5 706.797 476.5 696.5 466.203 696.5 453.5Z" stroke="#172C51" stroke-width="1.33333" stroke-miterlimit="8" fill="none" fill-rule="evenodd"/><text font-family="Calibri,Calibri_MSFontService,sans-serif" font-weight="400" font-size="24" transform="translate(713.237 461)">1</text><path d="M842.5 91.0001C842.5 78.0214 853.021 67.5001 866 67.5001 878.979 67.5001 889.5 78.0214 889.5 91.0001 889.5 103.979 878.979 114.5 866 114.5 853.021 114.5 842.5 103.979 842.5 91.0001Z" stroke="#172C51" stroke-width="1.33333" stroke-miterlimit="8" fill="none" fill-rule="evenodd"/><text font-family="Calibri,Calibri_MSFontService,sans-serif" font-weight="400" font-size="24" transform="translate(859.372 98)">5</text><path d="M0 0 0.000104987 63.7797" stroke="#000000" stroke-width="2" stroke-miterlimit="8" fill="none" fill-rule="evenodd" transform="matrix(1 0 0 -1 709 430.78)"/><rect x="702.5" y="291.5" width="13" height="12" stroke="#172C51" stroke-miterlimit="8" fill="#C55A11"/><rect x="702.5" y="303.5" width="13" height="12" stroke="#172C51" stroke-miterlimit="8" fill="#8FAADC"/><rect x="673.5" y="441.5" width="13" height="12" stroke="#172C51" stroke-miterlimit="8" fill="#DAE3F3"/><rect x="673.5" y="453.5" width="13" height="12" stroke="#172C51" stroke-miterlimit="8" fill="#C55A11"/><rect x="895.5" y="172.5" width="13" height="13" stroke="#172C51" stroke-miterlimit="8" fill="#FFD966"/><rect x="895.5" y="184.5" width="13" height="12" stroke="#172C51" stroke-miterlimit="8" fill="#70AD47"/><rect x="895.5" y="75.5001" width="13" height="12" stroke="#172C51" stroke-miterlimit="8" fill="#DAE3F3"/><rect x="895.5" y="87.5001" width="13" height="12" stroke="#172C51" stroke-miterlimit="8" fill="#4472C4"/><path d="M0 0 47.7684 50.6256" stroke="#000000" stroke-width="2" stroke-miterlimit="8" fill="none" fill-rule="evenodd" transform="matrix(1 0 0 -1 725 327.626)"/><path d="M0 0 43.1833 43.3418" stroke="#000000" stroke-width="2" stroke-miterlimit="8" fill="none" fill-rule="evenodd" transform="matrix(1 0 0 -1 806 244.342)"/><path d="M0 0 0.000104987 47.3721" stroke="#000000" stroke-width="2" stroke-miterlimit="8" fill="none" fill-rule="evenodd" transform="matrix(1 0 0 -1 865 161.372)"/><text font-family="Cambria Math,Cambria Math_MSFontService,sans-serif" font-weight="400" font-size="24" transform="translate(707.29 225)">­Юњћ</text><text font-family="Cambria Math,Cambria Math_MSFontService,sans-serif" font-weight="400" font-size="18" transform="translate(719.29 231)">­ЮЉќ</text><text font-family="Cambria Math,Cambria Math_MSFontService,sans-serif" font-weight="400" font-size="18" transform="translate(719.29 216)">Рђ▓</text><text font-family="Cambria Math,Cambria Math_MSFontService,sans-serif" font-weight="400" font-size="24" transform="translate(733.65 225)">=</text><text font-family="Cambria Math,Cambria Math_MSFontService,sans-serif" font-weight="400" font-size="24" transform="translate(758.097 225)">­Юњћ</text><text font-family="Cambria Math,Cambria Math_MSFontService,sans-serif" font-weight="400" font-size="18" transform="translate(770.097 230)">­Юњі</text><path d="M0.222769-0.247962 21.4415 18.8149 20.9959 19.3108-0.222769 0.247962ZM21.2187 19.0629 21.9082 14.3052 23.2024 20.845 16.5618 20.2563Z" transform="matrix(1 0 0 -1 852.5 427.345)"/><path d="M0.333333-7.62883e-07 0.333432 43.2062-0.333234 43.2062-0.333333 7.62883e-07ZM9.88838e-05 43.2062 4.00009 40.5395 0.000104987 45.8729-3.99991 40.5395Z" transform="matrix(1 0 0 -1 852.5 427.373)"/><path d="M852.5 427.167 882.827 427.167 882.827 427.833 852.5 427.833ZM882.827 427.5 880.161 423.5 885.494 427.5 880.161 431.5Z"/><text font-family="Calibri,Calibri_MSFontService,sans-serif" font-weight="400" font-size="16" transform="translate(887.034 425)">x</text><text font-family="Calibri,Calibri_MSFontService,sans-serif" font-weight="400" font-size="16" transform="translate(877.839 399)">y</text><text font-family="Calibri,Calibri_MSFontService,sans-serif" font-weight="400" font-size="16" transform="translate(848.907 375)">z</text><path d="M0.332796-0.018927 0.37065 0.646664-0.294941 0.684518-0.332796 0.018927ZM0.408504 1.31226 0.446358 1.97785-0.219234 2.0157-0.257088 1.35011ZM0.484212 2.64344 0.522066 3.30903-0.143525 3.34688-0.181379 2.68129ZM0.55992 3.97462 0.597774 4.64021-0.0678174 4.67806-0.105671 4.01247ZM0.635628 5.3058 0.673482 5.97139 0.00789062 6.00925-0.0299634 5.34366ZM0.711336 6.63698 0.74919 7.30257 0.0835987 7.34043 0.0457446 6.67484ZM0.787044 7.96817 0.824898 8.63376 0.159307 8.67161 0.121453 8.00602ZM0.862752 9.29935 0.900606 9.96494 0.235015 10.0028 0.197161 9.3372ZM0.93846 10.6305 0.976314 11.2961 0.310723 11.334 0.272869 10.6684ZM1.01417 11.9617 1.05202 12.6273 0.386431 12.6652 0.348577 11.9996ZM1.08988 13.2929 1.12773 13.9585 0.462139 13.9963 0.424285 13.3308ZM1.16558 14.6241 1.20344 15.2897 0.537847 15.3275 0.499993 14.6619ZM1.24129 15.9553 1.27915 16.6208 0.613555 16.6587 0.575701 15.9931ZM1.317 17.2864 1.35485 17.952 0.689263 17.9899 0.651409 17.3243ZM1.39271 18.6176 1.43056 19.2832 0.764971 19.3211 0.727117 18.6555ZM1.46842 19.9488 1.50627 20.6144 0.840679 20.6522 0.802825 19.9867ZM1.54412 21.28 1.58198 21.9456 0.916387 21.9834 0.878533 21.3178ZM1.61983 22.6112 1.65769 23.2768 0.992095 23.3146 0.954241 22.649ZM1.69554 23.9423 1.73339 24.6079 1.0678 24.6458 1.02995 23.9802ZM1.77125 25.2735 1.8091 25.9391 1.14351 25.977 1.10566 25.3114ZM1.84696 26.6047 1.88481 27.2703 1.21922 27.3082 1.18137 26.6426ZM1.92266 27.9359 1.96052 28.6015 1.29493 28.6393 1.25707 27.9737ZM1.99837 29.2671 2.03623 29.9327 1.37064 29.9705 1.33278 29.3049ZM2.07408 30.5982 2.11193 31.2638 1.44634 31.3017 1.40849 30.6361ZM2.14979 31.9294 2.18764 32.595 1.52205 32.6329 1.4842 31.9673ZM2.2255 33.2606 2.26335 33.9262 1.59776 33.9641 1.55991 33.2985ZM2.3012 34.5918 2.33906 35.2574 1.67347 35.2952 1.63561 34.6296ZM2.37691 35.923 2.41477 36.5886 1.74917 36.6264 1.71132 35.9608ZM2.45262 37.2542 2.49047 37.9197 1.82488 37.9576 1.78703 37.292ZM2.52833 38.5853 2.56618 39.2509 1.90059 39.2888 1.86274 38.6232ZM2.60404 39.9165 2.64189 40.5821 1.9763 40.62 1.93844 39.9544ZM2.67974 41.2477 2.7176 41.9133 2.05201 41.9511 2.01415 41.2856ZM2.75545 42.5789 2.7933 43.2445 2.12771 43.2823 2.08986 42.6167ZM2.83116 43.9101 2.86901 44.5757 2.20342 44.6135 2.16557 43.9479ZM2.90687 45.2412 2.94472 45.9068 2.27913 45.9447 2.24128 45.2791ZM2.98258 46.5724 3.02043 47.238 2.35484 47.2759 2.31698 46.6103ZM3.05828 47.9036 3.09614 48.5692 2.43055 48.607 2.39269 47.9415ZM3.13399 49.2348 3.17185 49.9004 2.50625 49.9382 2.4684 49.2726ZM3.2097 50.566 3.24755 51.2316 2.58196 51.2694 2.54411 50.6038ZM3.28541 51.8971 3.32326 52.5627 2.65767 52.6006 2.61982 51.935ZM3.36112 53.2283 3.39897 53.8939 2.73338 53.9318 2.69552 53.2662ZM3.43682 54.5595 3.47468 55.2251 2.80909 55.263 2.77123 54.5974ZM3.51253 55.8907 3.55039 56.5563 2.88479 56.5941 2.84694 55.9285ZM3.58824 57.2219 3.62609 57.8875 2.9605 57.9253 2.92265 57.2597ZM3.66395 58.5531 3.7018 59.2186 3.03621 59.2565 2.99836 58.5909ZM3.73966 59.8842 3.77751 60.5498 3.11192 60.5877 3.07406 59.9221ZM3.81536 61.2154 3.85322 61.881 3.18763 61.9189 3.14977 61.2533ZM3.89107 62.5466 3.92893 63.2122 3.26333 63.25 3.22548 62.5844ZM3.96678 63.8778 4.00463 64.5434 3.33904 64.5812 3.30119 63.9156ZM4.04249 65.209 4.08034 65.8745 3.41475 65.9124 3.3769 65.2468ZM4.1182 66.5401 4.15605 67.2057 3.49046 67.2436 3.4526 66.578ZM4.1939 67.8713 4.23176 68.5369 3.56617 68.5748 3.52831 67.9092ZM4.26961 69.2025 4.30746 69.8681 3.64187 69.9059 3.60402 69.2403ZM4.34532 70.5337 4.38317 71.1993 3.71758 71.2371 3.67973 70.5715ZM4.42103 71.8649 4.45888 72.5305 3.79329 72.5683 3.75543 71.9027ZM4.49673 73.196 4.53459 73.8616 3.869 73.8995 3.83114 73.2339ZM4.57244 74.5272 4.6103 75.1928 3.9447 75.2307 3.90685 74.5651ZM4.64815 75.8584 4.686 76.524 4.02041 76.5619 3.98256 75.8963ZM4.72386 77.1896 4.76171 77.8552 4.09612 77.893 4.05827 77.2274ZM4.79957 78.5208 4.83742 79.1864 4.17183 79.2242 4.13397 78.5586ZM4.87527 79.852 4.91313 80.5175 4.24754 80.5554 4.20968 79.8898ZM4.95098 81.1831 4.98884 81.8487 4.32324 81.8866 4.28539 81.221ZM5.02669 82.5143 5.06454 83.1799 4.39895 83.2178 4.3611 82.5522ZM5.1024 83.8455 5.14025 84.5111 4.47466 84.5489 4.43681 83.8833ZM5.1781 85.1767 5.21596 85.8423 4.55037 85.8801 4.51251 85.2145ZM5.25381 86.5079 5.29167 87.1734 4.62608 87.2113 4.58822 86.5457ZM5.32952 87.839 5.36737 88.5046 4.70178 88.5425 4.66393 87.8769ZM5.40523 89.1702 5.44308 89.8358 4.77749 89.8737 4.73964 89.2081ZM5.48094 90.5014 5.51879 91.167 4.8532 91.2048 4.81534 90.5392ZM5.55664 91.8326 5.5945 92.4982 4.92891 92.536 4.89105 91.8704ZM5.63235 93.1638 5.67021 93.8294 5.00461 93.8672 4.96676 93.2016ZM5.70806 94.4949 5.74591 95.1605 5.08032 95.1984 5.04247 94.5328ZM5.78377 95.8261 5.82162 96.4917 5.15603 96.5296 5.11818 95.864ZM5.85948 97.1573 5.89733 97.8229 5.23174 97.8607 5.19388 97.1952ZM5.93518 98.4885 5.97304 99.1541 5.30745 99.1919 5.26959 98.5263ZM6.01089 99.8197 6.04874 100.485 5.38315 100.523 5.3453 99.8575ZM6.0866 101.151 6.12445 101.816 5.45886 101.854 5.42101 101.189ZM6.16231 102.482 6.20016 103.148 5.53457 103.185 5.49672 102.52ZM6.23801 103.813 6.27587 104.479 5.61028 104.517 5.57242 103.851ZM6.31372 105.144 6.35158 105.81 5.68599 105.848 5.64813 105.182ZM6.38943 106.476 6.42728 107.141 5.76169 107.179 5.72384 106.513ZM6.46514 107.807 6.50299 108.472 5.8374 108.51 5.79955 107.845ZM6.54085 109.138 6.5787 109.804 5.91311 109.841 5.87525 109.176ZM6.61655 110.469 6.65441 111.135 5.98882 111.173 5.95096 110.507ZM6.69226 111.8 6.73012 112.466 6.06452 112.504 6.02667 111.838ZM6.76797 113.131 6.80582 113.797 6.14023 113.835 6.10238 113.169ZM6.84368 114.463 6.88153 115.128 6.21594 115.166 6.17809 114.501ZM6.91938 115.794 6.95724 116.459 6.29165 116.497 6.25379 115.832ZM6.99509 117.125 7.03295 117.791 6.36736 117.828 6.3295 117.163ZM7.0708 118.456 7.10865 119.122 6.44306 119.16 6.40521 118.494ZM7.14651 119.787 7.18436 120.453 6.51877 120.491 6.48092 119.825ZM7.22222 121.119 7.26007 121.784 6.59448 121.822 6.55662 121.156ZM7.29792 122.45 7.33578 123.115 6.67019 123.153 6.63233 122.488ZM7.37363 123.781 7.41149 124.447 6.7459 124.484 6.70804 123.819ZM7.44934 125.112 7.4872 125.778 6.82161 125.816 6.78375 125.15ZM7.52505 126.443 7.5629 127.109 6.89731 127.147 6.85946 126.481ZM7.60076 127.774 7.63861 128.44 6.97302 128.478 6.93517 127.812ZM7.67647 129.106 7.71432 129.771 7.04873 129.809 7.01088 129.143ZM7.75218 130.437 7.79003 131.102 7.12444 131.14 7.08659 130.475ZM7.82789 131.768 7.86574 132.434 7.20015 132.471 7.16229 131.806ZM7.90359 133.099 7.94145 133.765 7.27586 133.803 7.238 133.137ZM7.9793 134.43 8.01716 135.096 7.35157 135.134 7.31371 134.468ZM8.05501 135.762 8.09287 136.427 7.42728 136.465 7.38942 135.799ZM8.13072 137.093 8.16857 137.758 7.50298 137.796 7.46513 137.131ZM8.20643 138.424 8.24428 139.09 7.57869 139.127 7.54084 138.462ZM8.28214 139.755 8.31999 140.421 7.6544 140.459 7.61655 139.793ZM8.35785 141.086 8.3957 141.752 7.73011 141.79 7.69226 141.124ZM8.43355 142.417 8.47141 143.083 7.80582 143.121 7.76796 142.455ZM8.50926 143.749 8.54712 144.414 7.88153 144.452 7.84367 143.786ZM8.58497 145.08 8.62283 145.745 7.95724 145.783 7.91938 145.118ZM8.66068 146.411 8.69853 147.077 8.03294 147.114 7.99509 146.449ZM8.73639 147.742 8.77424 148.408 8.10865 148.446 8.0708 147.78ZM8.8121 149.073 8.84995 149.739 8.18436 149.777 8.14651 149.111ZM8.88781 150.405 8.92566 151.07 8.26007 151.108 8.22222 150.442ZM8.96352 151.736 9.00137 152.401 8.33578 152.439 8.29792 151.774ZM9.03922 153.067 9.07708 153.732 8.41149 153.77 8.37363 153.105ZM9.11493 154.398 9.15279 155.064 8.4872 155.102 8.44934 154.436ZM9.19064 155.729 9.2285 156.395 8.56291 156.433 8.52505 155.767ZM9.26635 157.06 9.3042 157.726 8.63861 157.764 8.60076 157.098ZM9.34206 158.392 9.37991 159.057 8.71432 159.095 8.67647 158.429ZM9.41777 159.723 9.45562 160.388 8.79003 160.426 8.75218 159.761ZM9.49347 161.054 9.53133 161.72 8.86574 161.757 8.82788 161.092ZM9.56918 162.385 9.60704 163.051 8.94145 163.089 8.90359 162.423ZM9.64489 163.716 9.68274 164.382 9.01715 164.42 8.9793 163.754ZM9.7206 165.048 9.75845 165.713 9.09286 165.751 9.05501 165.085ZM9.79631 166.379 9.83416 167.044 9.16857 167.082 9.13072 166.417ZM9.87201 167.71 9.90987 168.375 9.24428 168.413 9.20642 167.748ZM9.94772 169.041 9.98558 169.707 9.31999 169.745 9.28213 169.079ZM10.0234 170.372 10.0613 171.038 9.39569 171.076 9.35784 170.41ZM10.0991 171.703 10.137 172.369 9.4714 172.407 9.43355 171.741ZM10.1748 173.035 10.2127 173.7 9.54711 173.738 9.50926 173.072ZM10.2506 174.366 10.2884 175.031 9.62282 175.069 9.58496 174.404ZM10.3263 175.697 10.3641 176.363 9.69852 176.4 9.66067 175.735ZM10.402 177.028 10.4398 177.694 9.77423 177.732 9.73638 177.066ZM10.4777 178.359 10.5155 179.025 9.84994 179.063 9.81209 178.397ZM10.5534 179.691 10.5912 180.356 9.92565 180.394 9.88779 179.728ZM10.6291 181.022 10.6669 181.687 10.0014 181.725 9.9635 181.06ZM10.7048 182.353 10.7427 183.018 10.0771 183.056 10.0392 182.391ZM10.7805 183.684 10.8184 184.35 10.1528 184.388 10.1149 183.722ZM10.8562 185.015 10.8941 185.681 10.2285 185.719 10.1906 185.053ZM10.9319 186.346 10.9698 187.012 10.3042 187.05 10.2663 186.384ZM11.0076 187.678 11.0455 188.343 10.3799 188.381 10.342 187.715ZM11.0833 189.009 11.1212 189.674 10.4556 189.712 10.4177 189.047ZM11.159 190.34 11.1969 191.006 10.5313 191.043 10.4935 190.378ZM11.2348 191.671 11.2726 192.337 10.607 192.375 10.5692 191.709ZM11.3105 193.002 11.3483 193.668 10.6827 193.706 10.6449 193.04ZM11.3862 194.334 11.424 194.999 10.7584 195.037 10.7206 194.371ZM11.4619 195.665 11.4997 196.33 10.8341 196.368 10.7963 195.703ZM11.5376 196.996 11.5754 197.661 10.9098 197.699 10.872 197.034ZM11.6133 198.327 11.6511 198.993 10.9856 199.031 10.9477 198.365ZM11.689 199.658 11.7269 200.324 11.0613 200.362 11.0234 199.696ZM11.7647 200.989 11.8026 201.655 11.137 201.693 11.0991 201.027ZM11.8404 202.321 11.8783 202.986 11.2127 203.024 11.1748 202.359ZM11.9161 203.652 11.954 204.317 11.2884 204.355 11.2505 203.69ZM11.9918 204.983 12.0297 205.649 11.3641 205.687 11.3262 205.021ZM12.0675 206.314 12.1054 206.98 11.4398 207.018 11.402 206.352ZM12.1432 207.645 12.1811 208.311 11.5155 208.349 11.4777 207.683ZM12.219 208.977 12.2568 209.642 11.5912 209.68 11.5534 209.014ZM12.2947 210.308 12.3325 210.973 11.6669 211.011 11.6291 210.346ZM12.3704 211.639 12.3853 211.902 11.7197 211.94 11.7048 211.677ZM15.9704 210.363 12.4311 218.577 7.98328 210.817Z" fill="#7F7F7F" transform="matrix(1 0 0 -1 853.5 427.077)"/><text font-family="Cambria Math,Cambria Math_MSFontService,sans-serif" font-weight="400" font-size="24" transform="translate(815.762 348)">­ЮЉЦ</text><path d="M8.83594-15.668 5.89453-13.125 5.27344-13.8281 7.14844-15.457 0-15.457 0-16.5586 7.14844-16.5586 5.27344-18.1875 5.89453-18.8906 8.83594-16.3477Z" transform="translate(819.522 348)"/><text fill="#000000" fill-opacity="0" font-family="Arial,Arial_MSFontService,sans-serif" font-size="5.76562" y="-13.8457">нд</text><text font-family="Cambria Math,Cambria Math_MSFontService,sans-serif" font-weight="400" font-size="18" transform="translate(826.082 354)">­ЮЉЌ</text><text font-family="Cambria Math,Cambria Math_MSFontService,sans-serif" font-weight="400" font-size="18" transform="translate(829.729 338)">Рђ▓</text><text font-family="Cambria Math,Cambria Math_MSFontService,sans-serif" font-weight="400" font-size="24" transform="translate(843.495 348)">=</text><text font-family="Cambria Math,Cambria Math_MSFontService,sans-serif" font-weight="400" font-size="24" transform="translate(867.942 348)">­ЮЉЦ</text><path d="M8.83594-15.668 5.89453-13.125 5.27344-13.8281 7.14844-15.457 0-15.457 0-16.5586 7.14844-16.5586 5.27344-18.1875 5.89453-18.8906 8.83594-16.3477Z" transform="translate(871.702 348)"/><text fill="#000000" fill-opacity="0" font-family="Arial,Arial_MSFontService,sans-serif" font-size="5.76562" y="-13.8457">нд</text><text font-family="Cambria Math,Cambria Math_MSFontService,sans-serif" font-weight="400" font-size="18" transform="translate(878.262 353)">­ЮЉЌ</text><text font-family="Cambria Math,Cambria Math_MSFontService,sans-serif" font-weight="400" font-size="24" transform="translate(888.008 348)">­ЮЉ╣</text><text font-family="Cambria Math,Cambria Math_MSFontService,sans-serif" font-weight="400" font-size="24" transform="translate(909.962 348)">+</text><text font-family="Cambria Math,Cambria Math_MSFontService,sans-serif" font-weight="400" font-size="24" transform="translate(933.082 348)">­ЮЉА</text><path d="M8.83594-15.668 5.89453-13.125 5.27344-13.8281 7.14844-15.457 0-15.457 0-16.5586 7.14844-16.5586 5.27344-18.1875 5.89453-18.8906 8.83594-16.3477Z" transform="translate(934.802 345)"/><text fill="#000000" fill-opacity="0" font-family="Arial,Arial_MSFontService,sans-serif" font-size="5.76562" y="-13.8457">нд</text><path d="M448 276 551.587 276 551.587 280 448 280ZM549.587 272 561.587 278 549.587 284Z"/><text font-family="Cambria Math,Cambria Math_MSFontService,sans-serif" font-weight="400" font-size="24" transform="translate(509.845 269)">­ЮЉ╣</text><text font-family="Cambria Math,Cambria Math_MSFontService,sans-serif" font-weight="400" font-size="24" transform="translate(526.511 269)">,</text><text font-family="Cambria Math,Cambria Math_MSFontService,sans-serif" font-weight="400" font-size="24" transform="translate(535.311 269)">­ЮЉА</text><path d="M8.83594-15.668 5.89453-13.125 5.27344-13.8281 7.14844-15.457 0-15.457 0-16.5586 7.14844-16.5586 5.27344-18.1875 5.89453-18.8906 8.83594-16.3477Z" transform="translate(537.031 266)"/><text fill="#000000" fill-opacity="0" font-family="Arial,Arial_MSFontService,sans-serif" font-size="5.76562" y="-13.8457">нд</text><text font-family="Cambria Math,Cambria Math_MSFontService,sans-serif" font-weight="400" font-size="24" transform="translate(551.838 269)">Рѕѕ</text><text font-family="Cambria Math,Cambria Math_MSFontService,sans-serif" font-weight="400" font-size="24" transform="translate(573.285 269)">­ЮЉє­ЮљИ</text><text font-family="Cambria Math,Cambria Math_MSFontService,sans-serif" font-weight="400" font-size="24" transform="translate(601.711 269)">(</text><text font-family="Cambria Math,Cambria Math_MSFontService,sans-serif" font-weight="400" font-size="24" transform="translate(611.545 269)">3</text><text font-family="Cambria Math,Cambria Math_MSFontService,sans-serif" font-weight="400" font-size="24" transform="translate(624.711 269)">)</text><path d="M421 141.217 421 100 424 100 424 141.217ZM418 101.5 422.5 92.5001 427 101.5Z" fill="#4472C4"/><path d="M335.262 220.962 311.442 185.56 313.931 183.885 337.751 219.287ZM309.791 188.479 308.5 178.5 317.258 183.455Z" fill="#4472C4"/><path d="M242.739 257.654 270.689 298.607 268.211 300.298 240.261 259.346ZM272.321 295.677 273.678 305.647 264.887 300.75Z" fill="#4472C4"/><path d="M85.5453 242.045 32.9728 241.13 33.025 238.131 85.5975 239.045ZM34.4204 244.156 25.5001 239.5 34.577 235.157Z" fill="#4472C4"/><path d="M55.5001 309 105.042 309 105.042 312 55.5 312ZM103.542 306 112.542 310.5 103.542 315Z" fill="#4472C4"/><path d="M1.11128-1.0075 33.2233 34.4126 31.0007 36.4276-1.11128 1.0075ZM34.4384 31.2863 37.1495 40.9765 27.7707 37.3313Z" fill="#4472C4" transform="matrix(1 0 0 -1 735.5 438.477)"/><path d="M1.10162-1.01806 34.2574 34.8589 32.0542 36.8951-1.10162 1.01806ZM35.4426 31.7212 38.2461 41.3851 28.8329 37.8296Z" fill="#4472C4" transform="matrix(-1 0 0 1 694.746 361.5)"/><path d="M813.5 261 865.712 261 865.712 264 813.5 264ZM864.212 258 873.212 262.5 864.212 267Z" fill="#4472C4"/><path d="M842.65 184.742 792.98 184.097 793.019 181.097 842.689 181.742ZM794.441 187.116 785.5 182.5 794.558 178.117Z" fill="#4472C4"/><path d="M847.387 76.0386 812.78 41.8388 814.889 39.705 849.496 73.9047ZM811.738 45.027 808.5 35.5001 818.065 38.6255Z" fill="#4472C4"/><text font-family="Cambria Math,Cambria Math_MSFontService,sans-serif" font-weight="400" font-size="24" transform="translate(323.781 186)">­ЮЉБ</text><path d="M8.83594-15.668 5.89453-13.125 5.27344-13.8281 7.14844-15.457 0-15.457 0-16.5586 7.14844-16.5586 5.27344-18.1875 5.89453-18.8906 8.83594-16.3477Z" transform="translate(327.821 186)"/><text fill="#000000" fill-opacity="0" font-family="Arial,Arial_MSFontService,sans-serif" font-size="5.76562" y="-13.8457">нд</text><text font-family="Cambria Math,Cambria Math_MSFontService,sans-serif" font-weight="400" font-size="18" transform="translate(334.434 191)">­ЮЉЌ</text><text font-family="Cambria Math,Cambria Math_MSFontService,sans-serif" font-weight="400" font-size="24" transform="translate(740.906 158)">­ЮњЌ</text><path d="M752.367 138.875 755.309 141.418 755.309 142.097 752.367 144.64 751.746 143.937 753.621 142.308 749.678 142.308 747.944 142.308 746.473 142.308 742.646 142.308 740.913 142.308 740.913 141.207 742.646 141.207 746.473 141.207 747.944 141.207 749.678 141.207 753.621 141.207 751.746 139.578Z" fill-rule="evenodd"/><text font-family="Cambria Math,Cambria Math_MSFontService,sans-serif" font-weight="400" font-size="18" transform="translate(753.126 164)">­ЮЉЌ</text><text font-family="Cambria Math,Cambria Math_MSFontService,sans-serif" font-weight="400" font-size="18" transform="translate(755.24 148)">Рђ▓</text><text font-family="Cambria Math,Cambria Math_MSFontService,sans-serif" font-weight="400" font-size="24" transform="translate(769.486 158)">=</text><text font-family="Cambria Math,Cambria Math_MSFontService,sans-serif" font-weight="400" font-size="24" transform="translate(793.933 158)">­ЮњЌ</text><path d="M805.394 138.875 808.336 141.418 808.336 142.097 805.394 144.64 804.773 143.937 806.648 142.308 802.704 142.308 800.971 142.308 799.5 142.308 795.673 142.308 793.94 142.308 793.94 141.207 795.673 141.207 799.5 141.207 800.971 141.207 802.704 141.207 806.648 141.207 804.773 139.578Z" fill-rule="evenodd"/><text font-family="Cambria Math,Cambria Math_MSFontService,sans-serif" font-weight="400" font-size="18" transform="translate(806.153 163)">­ЮЉЌ</text><text font-family="Cambria Math,Cambria Math_MSFontService,sans-serif" font-weight="400" font-size="24" transform="translate(815.9 158)">­ЮЉ╣</text></g></svg>